<?xml version="1.0" encoding="utf-8"?>
<!-- Generator: Adobe Illustrator 26.1.0, SVG Export Plug-In . SVG Version: 6.00 Build 0)  -->
<svg version="1.1" id="Livello_1" xmlns="http://www.w3.org/2000/svg" xmlns:xlink="http://www.w3.org/1999/xlink" x="0px" y="0px"
	 viewBox="0 0 500 500" style="enable-background:new 0 0 500 500;" xml:space="preserve">
<style type="text/css">
	.st0{fill:#474848;}
	.st1{fill:#FFD24C;}
	.st2{fill:none;stroke:#313130;stroke-width:8.7195;stroke-linecap:round;stroke-linejoin:round;stroke-miterlimit:10;}
	.st3{fill:#FFFFFF;}
	.st4{fill:#D6D6D6;}
	.st5{fill:#64A4DA;}
	.st6{fill:#313130;}
</style>
<g>
	<g>
		<path class="st0" d="M394.9,339.8c0,0,22.2,13.4,31,20.3c8.9,6.9,11.2,13.2,2.1,14.1c0,0,7.2,36.9-14.7,18.6
			c0,0-10.2,7.2-16.2-8.5c-6.1-15.7,2.9-16.4-15.8-26.5L394.9,339.8z"/>
		<path class="st1" d="M315.6,295.6l65.9,61.1l14.1-17.9C395.7,338.8,359.9,304,315.6,295.6z"/>
		<path class="st2" d="M380.9,357.5c-22.8-28.4-64.6-56.4-64.6-56.4s-0.6-11,5.8-8.2c22.4,9.7,42.7,20.3,73.6,45.8L380.9,357.5
			c0,0,19.9,8.6,16.7,20.1c-3.1,11.7,5.4,20.4,14.7,14.1c0,0,10.5,10.9,15.2,2.7c4.7-8.2,3.1-16.6-0.2-21.6"/>
		<path class="st2" d="M429.8,378.4c0,0,9.4-9.8-6.1-20c-15.5-10.1-28-19.6-28-19.6"/>
	</g>
	<g>
		<path class="st0" d="M256.9,450.9c-0.1,0.5,0,17.7,0,17.7l3.6,0.7c0,0,7.3,7.1,19.3,5.4c12-1.7,11-2.6,11-2.6s0.7-11.2-4.8-13.9
			c-5.4-2.6-5.9-4-5.7-7.3"/>
		<path class="st0" d="M241.6,450.9c0.1,0.5,0,17.7,0,17.7l-3.6,0.7c0,0-7.3,7.1-19.3,5.4c-12-1.7-11-2.6-11-2.6s-0.7-11.2,4.8-13.9
			c5.4-2.6,5.9-4,5.7-7.3"/>
		<path class="st0" d="M151.2,406.5c0,0-3.2,25.7-3.3,36.9c-0.1,11.2,3.4,17,9.8,10.4c0,0,24.5,28.5,23.7,0c0,0,12-3.5,3.4-18
			c-8.6-14.5-14.7-7.9-11-28.8L151.2,406.5z"/>
		<path class="st1" d="M169.8,285.4l1.6,121.1l-22.8,0C148.5,406.5,148.9,325.3,169.8,285.4z"/>
		<path class="st1" d="M328.7,392.1c0,8.7-3.7,17-10.3,22.7c-7.5,6.5-17.8,14.1-26.7,15.9l-7.9,16.7c-1,2.1-3.1,3.5-5.5,3.5h-17.8
			c-3.3,0-6-2.7-6-6v-16.2h-5h-5v16.2c0,3.3-2.7,6-6,6h-17.9c-2.4,0-4.5-1.4-5.5-3.5l-7.8-16.7c-8.8-1.8-19-9.3-26.5-15.7
			c-6.7-5.8-10.6-14.1-10.6-23l0.1-282.4c0,0-0.6-20.6,3.9-29.2c28.5-54.8,123.4-56.9,147.5,0c5.8,10.6,7,29.2,7,29.2L328.7,392.1z"
			/>
		<circle class="st3" cx="283.4" cy="132.9" r="28.1"/>
		<circle class="st3" cx="214.1" cy="132.9" r="28.1"/>
		<path class="st4" d="M283.3,91.7c-14.4,0-27.3,7.6-34.5,18.9c-7.3-11.3-20.2-18.9-34.8-18.9c-22.8,0-41.1,18.4-41.1,41.2
			c0,22.7,18.3,41.1,41.1,41.1c14.6,0,27.4-7.6,34.8-18.9c7.2,11.3,20.1,18.9,34.5,18.9c22.8,0,41.2-18.4,41.2-41.1
			C324.6,110.2,306.1,91.7,283.3,91.7z M214.1,162c-16.1,0-29-13-29-29c0-16.1,13-29.1,29-29.1s29.1,13.1,29.1,29.1
			C243.2,149,230.1,162,214.1,162z M283.3,162c-16.1,0-29-13-29-29c0-16.1,13-29.1,29-29.1c16.1,0,29.1,13.1,29.1,29.1
			C312.5,149,299.4,162,283.3,162z"/>
		<path class="st5" d="M195.6,321.1v29.7c0,0-3.3,21.5-25.4,21.2c0,0-15.7,41.6,37.1,58.7l9.1,20.2l25.1,0c0,0,3.8,2.8,3-22.2h10
			l0.2,17.4c0,0-0.5,4.7,8.8,4.7c9.3,0,14.8,0,14.8,0s6.1,0.8,13.4-20.2c0,0,33.2-5.2,36.1-31.4l0.9-27.3c0,0-33.1,2.3-27.1-50.9
			L195.6,321.1L195.6,321.1z"/>
		<path class="st5" d="M328.7,263c-14.1,19.8-48.7,68.9-48.7,70.5l13.4,10.6c1-1.2,24.1-35.4,35.2-51.9"/>
		<path class="st5" d="M170.3,262.4c13.7,19.4,49.1,69.5,49.1,71.1L206,344.1c-1-1.2-24.8-36.4-35.7-52.6v-0.1
			c-0.9-1.2-0.5-1.2-1.2-2.2"/>
		<circle class="st2" cx="283.4" cy="132.9" r="29.1"/>
		<circle class="st2" cx="214.1" cy="132.9" r="29.1"/>
		<path class="st2" d="M248.8,155.1c-7.3,11.4-20.1,19-34.7,19c-22.8,0-41.2-18.4-41.2-41.1c0-22.8,18.4-41.2,41.2-41.2
			c14.6,0,27.4,7.6,34.7,19c7.2-11.4,20-19,34.5-19c22.8,0,41.2,18.4,41.2,41.2c0,22.7-18.4,41.1-41.2,41.1
			C268.8,174.1,256,166.5,248.8,155.1z"/>
		<circle class="st6" cx="274.8" cy="135.2" r="10.9"/>
		<circle class="st6" cx="218.4" cy="135.2" r="10.9"/>
		<path class="st2" d="M170.2,372h1.7c13.1,0,23.7-10.6,23.7-23.7V329"/>
		<path class="st2" d="M328.7,392.1c0,8.7-3.7,17-10.3,22.7c-7.5,6.5-17.8,14.1-26.7,15.9l-7.9,16.7c-1,2.1-3.1,3.5-5.5,3.5h-17.8
			c-3.3,0-6-2.7-6-6v-16.2h-5h-5v16.2c0,3.3-2.7,6-6,6h-17.9c-2.4,0-4.5-1.4-5.5-3.5l-7.8-16.7c-8.8-1.8-19-9.3-26.5-15.7
			c-6.7-5.8-10.6-14.1-10.6-23l0.1-282.4c0,0-0.6-20.6,3.9-29.2c28.5-54.8,123.4-56.9,147.5,0c5.8,10.6,7,29.2,7,29.2L328.7,392.1z"
			/>
		<path class="st2" d="M303.5,329.5v18.8c0,13.1,10.6,23.7,23.7,23.7h1.6"/>
		<polyline class="st2" points="211.4,321.1 249.5,321.1 288.2,321.1 		"/>
		<path class="st2" d="M169.9,281.7c0,0-2.4,7.2-5.4,18.9c-6.2,23.6-15.4,65.7-14.4,105.8h23.8c0,0-5.6,20.9,5.5,25.6
			c11.1,4.7,12.6,16.8,1.9,20.2c0,0,2,15-7.3,13.7c-9.3-1.4-14.9-8-16.8-13.5"/>
		<path class="st2" d="M159.9,457.8c0,0-13.5,1.2-11.9-17.2c1.6-18.4,2-34.1,2-34.1"/>
		<circle class="st6" cx="292.5" cy="330.1" r="3.8"/>
		<circle class="st6" cx="206.9" cy="330.1" r="3.8"/>
		<path class="st2" d="M256.9,450.9c-0.1,0.5,0,17.7,0,17.7l3.6,0.7c0,0,7.3,7.1,19.3,5.4c12-1.7,11-2.6,11-2.6s0.7-11.2-4.8-13.9
			c-5.4-2.6-5.9-4-5.7-7.3"/>
		<path class="st2" d="M241.6,450.9c0.1,0.5,0,17.7,0,17.7l-3.6,0.7c0,0-7.3,7.1-19.3,5.4c-12-1.7-11-2.6-11-2.6s-0.7-11.2,4.8-13.9
			c5.4-2.6,5.9-4,5.7-7.3"/>
		<path class="st2" d="M226,252c0,0,36.9,9.2,57.4-12.8"/>
		<path class="st2" d="M274.8,25c-17.1,5.1-25.2,20.6-25.2,20.6V28.7"/>
		<path class="st2" d="M224.3,25c17.1,5.1,25.2,20.6,25.2,20.6"/>
		<path class="st2" d="M328.7,263c-14.1,19.8-48.7,68.9-48.7,70.5l13.4,10.6c1-1.2,24.1-35.4,35.2-51.9"/>
		<path class="st2" d="M170.3,262.4c13.7,19.4,49.1,69.5,49.1,71.1L206,344.1c-1-1.2-24.8-36.4-35.7-52.6v-0.1
			c-0.9-1.2-0.5-1.2-1.2-2.2"/>
	</g>
</g>
</svg>
