<?xml version="1.0" encoding="utf-8"?>
<!-- Generator: Adobe Illustrator 23.0.5, SVG Export Plug-In . SVG Version: 6.00 Build 0)  -->
<svg version="1.1" id="Livello_1" xmlns="http://www.w3.org/2000/svg" xmlns:xlink="http://www.w3.org/1999/xlink" x="0px" y="0px"
	 viewBox="0 0 500 500" style="enable-background:new 0 0 500 500;" xml:space="preserve">
<style type="text/css">
	.st0{fill:#464847;}
	.st1{fill:#FFD14C;}
	.st2{fill:#FFFFFF;}
	.st3{fill:#D5D5D5;}
	.st4{fill:#65A4D9;}
	.st5{fill:#313130;}
	.st6{fill:#484848;}
</style>
<g>
	<g>
		<path class="st0" d="M256.73,447.11c-0.13,0.52,0,17.38,0,17.38l3.5,0.65c0,0,7.14,7,18.94,5.32c11.8-1.69,10.77-2.59,10.77-2.59
			s0.65-11.03-4.67-13.62c-5.32-2.59-5.84-3.89-5.58-7.13"/>
	</g>
	<g>
		<path class="st0" d="M153.09,403.54c0,0-3.15,25.22-3.26,36.23c-0.11,11.01,3.36,16.67,9.58,10.17c0,0,24,27.94,23.22-0.03
			c0,0,11.76-3.42,3.34-17.64c-8.42-14.22-14.42-7.75-10.81-28.27L153.09,403.54z"/>
	</g>
	<g>
		<path class="st0" d="M346.9,403.54c0,0,3.15,25.22,3.26,36.23c0.11,11.01-3.36,16.67-9.58,10.17c0,0-24,27.94-23.22-0.03
			c0,0-11.76-3.42-3.34-17.64c8.42-14.22,14.42-7.75,10.81-28.27L346.9,403.54z"/>
	</g>
	<g>
		<path class="st1" d="M327.24,284.7l-1.54,118.84l22.41-0.02C348.1,403.52,347.74,323.88,327.24,284.7"/>
	</g>
	<g>
		<path class="st1" d="M171.3,284.7l1.54,118.84l-22.41-0.02C150.43,403.52,150.8,323.88,171.3,284.7"/>
	</g>
	<g>
		<path class="st1" d="M327.24,389.38c0,8.54-3.63,16.7-10.1,22.27c-7.36,6.34-17.46,13.85-26.22,15.62l-7.77,16.41
			c-0.99,2.08-3.08,3.4-5.38,3.4h-17.49c-3.23,0-5.85-2.62-5.85-5.85v-15.89h-4.89h-4.89v15.89c0,3.23-2.62,5.85-5.85,5.85h-17.55
			c-2.33,0-4.45-1.35-5.44-3.46l-7.66-16.36c-8.64-1.75-18.68-9.08-26.01-15.36c-6.55-5.68-10.39-13.88-10.39-22.52l0.14-277.08
			c0,0-0.56-20.19,3.83-28.6c27.99-53.72,121.09-55.79,144.69,0c5.69,10.45,6.91,28.6,6.91,28.6L327.24,389.38z"/>
	</g>
	<g>
		<path class="st2" d="M282.76,107.51c15.25,0,27.61,12.36,27.61,27.61c0,15.25-12.36,27.61-27.61,27.61
			c-15.25,0-27.61-12.36-27.61-27.61C255.15,119.87,267.51,107.51,282.76,107.51"/>
	</g>
	<g>
		<path class="st2" d="M214.8,107.51c15.25,0,27.61,12.36,27.61,27.61c0,15.25-12.36,27.61-27.61,27.61
			c-15.25,0-27.61-12.36-27.61-27.61C187.19,119.87,199.55,107.51,214.8,107.51"/>
	</g>
	<g>
		<path class="st3" d="M282.7,94.73c-14.17,0-26.76,7.45-33.85,18.57c-7.21-11.12-19.79-18.57-34.09-18.57
			c-22.36,0-40.33,18.09-40.33,40.45c0,22.24,17.96,40.32,40.33,40.32c14.3,0,26.88-7.45,34.09-18.57
			c7.09,11.12,19.67,18.57,33.85,18.57c22.36,0,40.45-18.09,40.45-40.32C323.14,112.82,305.06,94.73,282.7,94.73 M214.76,163.65
			c-15.76,0-28.47-12.71-28.47-28.47c0-15.76,12.71-28.59,28.47-28.59c15.76,0,28.59,12.83,28.59,28.59
			C243.35,150.94,230.52,163.65,214.76,163.65 M282.7,163.65c-15.76,0-28.47-12.71-28.47-28.47c0-15.76,12.71-28.59,28.47-28.59
			c15.76,0,28.59,12.83,28.59,28.59C311.29,150.94,298.46,163.65,282.7,163.65"/>
	</g>
	<g>
		<path class="st4" d="M196.64,319.71v29.11c0,0-3.2,21.14-24.88,20.82c0,0-15.4,40.82,36.4,57.62l8.95,19.82l24.64,0.03
			c0,0,3.7,2.74,2.9-21.77h9.78l0.18,17.09c0,0-0.5,4.65,8.66,4.65h14.51c0,0,6,0.75,13.15-19.82c0,0,32.58-5.15,35.43-30.81
			l0.89-26.81c0,0-32.47,2.28-26.61-49.94H196.64z"/>
	</g>
	<g>
		<path class="st4" d="M327.24,262.8c-13.79,19.47-47.75,67.57-47.75,69.14l13.18,10.39c0.96-1.22,23.66-34.75,34.57-50.9"/>
	</g>
	<g>
		<path class="st4" d="M171.85,262.18c13.44,19.03,48.19,68.18,48.19,69.75l-13.18,10.39c-0.96-1.22-24.36-35.7-35.01-51.59v-0.09
			c-0.87-1.22-0.46-1.16-1.16-2.12"/>
	</g>
	<g>
		<path class="st5" d="M323.41,466.3c-3.18,0-5.32-1.38-6.61-2.65c-3.35-3.3-3.89-8.76-3.82-12.36c-4.15-2.29-6.67-6.07-6.89-10.57
			c-0.33-6.53,4.22-12.8,11.6-15.99c6.17-2.64,3.85-16.53,2.89-20.11c-0.34-1.28-0.07-2.65,0.74-3.71c0.81-1.06,2.06-1.67,3.39-1.67
			h19.18c0.18-38.5-8.65-77.94-14.06-98.43c-1.31-5.03-3.46-10.57-6.41-16.46c-1.06-2.11-0.2-4.68,1.91-5.74
			c2.12-1.06,4.68-0.2,5.74,1.91c3.22,6.43,5.58,12.53,7.03,18.12c5.72,21.66,15.19,64.12,14.28,104.97
			c-0.05,2.32-1.95,4.18-4.28,4.18h-18.17c1.3,9.05,0.37,20.85-8.87,24.8c-4.61,1.99-6.55,5.3-6.43,7.7
			c0.12,2.43,2.31,3.62,4.12,4.2c1.98,0.63,3.23,2.59,2.95,4.65c-0.4,3.06-0.05,7.28,1.11,8.41c0.08,0.08,0.28,0.27,1.17,0.14
			c7.47-1.07,11.71-6.27,13.09-10.39c0.75-2.24,3.16-3.45,5.41-2.71c2.24,0.75,3.45,3.17,2.71,5.41
			c-2.15,6.44-8.66,14.54-19.95,16.15C324.58,466.25,323.98,466.3,323.41,466.3z"/>
	</g>
	<g>
		<path class="st5" d="M282.74,167.97c-18.11,0-32.84-14.73-32.84-32.84s14.73-32.84,32.84-32.84c18.11,0,32.84,14.73,32.84,32.84
			S300.85,167.97,282.74,167.97z M282.74,110.84c-13.39,0-24.29,10.9-24.29,24.29s10.9,24.29,24.29,24.29
			c13.39,0,24.29-10.9,24.29-24.29S296.13,110.84,282.74,110.84z"/>
	</g>
	<g>
		<path class="st5" d="M214.8,167.97c-18.11,0-32.84-14.73-32.84-32.84s14.73-32.84,32.84-32.84s32.84,14.73,32.84,32.84
			S232.91,167.97,214.8,167.97z M214.8,110.84c-13.39,0-24.29,10.9-24.29,24.29s10.9,24.29,24.29,24.29s24.29-10.9,24.29-24.29
			S228.19,110.84,214.8,110.84z"/>
	</g>
	<g>
		<path class="st5" d="M282.71,179.77c-13.26,0-25.54-5.76-33.89-15.67c-8.42,9.91-20.76,15.67-34.03,15.67
			c-24.65,0-44.7-20.01-44.7-44.61c0-24.65,20.05-44.7,44.7-44.7c13.27,0,25.61,5.76,34.03,15.67c8.35-9.91,20.63-15.67,33.89-15.67
			c24.65,0,44.7,20.05,44.7,44.7C327.41,159.76,307.36,179.77,282.71,179.77z M248.84,152.63c0,0,0.01,0,0.01,0
			c1.46,0,2.82,0.75,3.6,1.99c6.58,10.4,17.89,16.6,30.26,16.6c19.93,0,36.14-16.17,36.14-36.05c0-19.93-16.21-36.14-36.14-36.14
			c-12.37,0-23.68,6.21-30.26,16.6c-0.78,1.24-2.14,1.99-3.6,1.99c0,0-0.01,0-0.01,0c-1.46,0-2.82-0.74-3.6-1.97
			c-6.67-10.41-18.05-16.62-30.45-16.62c-19.93,0-36.14,16.21-36.14,36.14c0,19.88,16.21,36.05,36.14,36.05
			c12.4,0,23.78-6.21,30.45-16.62C246.03,153.37,247.39,152.63,248.84,152.63z"/>
	</g>
	<g>
		<path class="st5" d="M274.3,126.7c5.89,0,10.66,4.77,10.66,10.66c0,5.89-4.77,10.66-10.66,10.66c-5.89,0-10.66-4.77-10.66-10.66
			C263.64,131.47,268.41,126.7,274.3,126.7"/>
	</g>
	<g>
		<path class="st5" d="M218.97,126.7c5.89,0,10.66,4.77,10.66,10.66c0,5.89-4.77,10.66-10.66,10.66c-5.89,0-10.66-4.77-10.66-10.66
			C208.31,131.47,213.08,126.7,218.97,126.7"/>
	</g>
	<g>
		<path class="st5" d="M173.39,373.92h-1.64c-2.36,0-4.28-1.91-4.28-4.28s1.91-4.28,4.28-4.28h1.64c10.46,0,18.97-8.51,18.97-18.97
			v-18.92c0-2.36,1.91-4.28,4.28-4.28c2.36,0,4.28,1.91,4.28,4.28v18.92C200.91,361.58,188.57,373.92,173.39,373.92z"/>
	</g>
	<g>
		<path class="st5" d="M277.77,451.36h-17.49c-5.58,0-10.13-4.54-10.13-10.13v-11.61h-1.22v11.61c0,5.58-4.54,10.13-10.13,10.13
			h-17.55c-3.97,0-7.63-2.32-9.31-5.93l-6.79-14.5c-7.31-2.07-15.98-7.37-25.79-15.78c-7.56-6.55-11.88-15.94-11.88-25.77
			l0.14-277.08c-0.06-2.06-0.45-21.44,4.31-30.58c14.45-27.73,46.9-44.72,82.65-43.29c32.62,1.31,58.65,17.53,69.7,43.41
			c5.98,11.16,7.27,29.4,7.32,30.17c0.01,0.1,0.01,0.19,0.01,0.29l-0.09,277.08c0,9.87-4.22,19.17-11.58,25.51
			c-9.95,8.57-18.69,13.96-26.02,16.04l-6.9,14.57C285.33,449.06,281.7,451.36,277.77,451.36z M244.65,421.07h9.78
			c2.36,0,4.28,1.91,4.28,4.28v15.89c0,0.87,0.7,1.57,1.57,1.57h17.49c0.64,0,1.24-0.38,1.51-0.96l7.77-16.41
			c0.58-1.22,1.7-2.09,3.02-2.36c6.2-1.25,14.59-6.32,24.28-14.66c5.47-4.72,8.61-11.65,8.61-19.03c0,0,0,0,0,0l0.09-276.92
			c-0.12-1.62-1.47-17.67-6.39-26.72c-0.07-0.12-0.13-0.25-0.18-0.38c-9.67-22.86-32.94-37.21-62.24-38.39
			c-32.48-1.31-61.79,13.89-74.72,38.7c-3.18,6.1-3.49,21.21-3.35,26.51l-0.14,277.2c0,7.35,3.25,14.38,8.91,19.29
			c9.52,8.16,17.85,13.15,24.06,14.4c1.33,0.27,2.45,1.15,3.03,2.38l7.66,16.36c0.28,0.61,0.9,1,1.56,1h17.55
			c0.87,0,1.57-0.7,1.57-1.57v-15.89C240.38,422.98,242.29,421.07,244.65,421.07z"/>
	</g>
	<g>
		<path class="st5" d="M327.24,373.92h-1.55c-15.18,0-27.52-12.35-27.52-27.52v-18.4c0-2.36,1.91-4.28,4.28-4.28
			c2.36,0,4.28,1.91,4.28,4.28v18.4c0,10.46,8.51,18.97,18.97,18.97h1.55c2.36,0,4.28,1.91,4.28,4.28S329.6,373.92,327.24,373.92z"
			/>
	</g>
	<g>
		<path class="st5" d="M287.43,323.99h-75.34c-2.36,0-4.28-1.91-4.28-4.28s1.91-4.28,4.28-4.28h75.34c2.36,0,4.28,1.91,4.28,4.28
			S289.79,323.99,287.43,323.99z"/>
	</g>
	<g>
		<path class="st5" d="M338.89,458.13c-0.47,0-0.79-0.02-0.92-0.04c-2.35-0.22-4.09-2.3-3.87-4.65c0.21-2.34,2.27-4.04,4.6-3.87
			c0.14,0.01,2.95,0.11,4.86-1.85c1.88-1.92,2.64-5.51,2.21-10.37c-1.59-18-1.98-33.55-1.98-33.7c-0.06-2.36,1.81-4.32,4.17-4.38
			c2.37,0.05,4.32,1.81,4.38,4.17c0,0.15,0.38,15.44,1.95,33.16c0.67,7.63-0.93,13.43-4.75,17.24
			C345.69,457.68,340.91,458.13,338.89,458.13z"/>
	</g>
	<g>
		<path class="st5" d="M176.49,466.32c-0.55,0-1.14-0.04-1.76-0.13c-11.18-1.62-17.72-9.71-19.91-16.14
			c-0.76-2.23,0.43-4.67,2.66-5.43c2.24-0.76,4.67,0.43,5.43,2.66c1.42,4.15,5.69,9.37,13.05,10.44c0.89,0.13,1.11-0.08,1.2-0.16
			c1.24-1.23,1.49-5.75,1.13-8.45c-0.28-2.06,0.97-4.02,2.95-4.65c1.83-0.58,4.03-1.78,4.14-4.22c0.11-2.38-1.82-5.65-6.41-7.61
			c-9.29-3.97-10.22-15.77-8.91-24.82h-18.13c-2.32,0-4.22-1.85-4.28-4.17c-0.97-40.45,8.52-83.16,14.26-105.01
			c3.03-11.54,5.32-18.53,5.42-18.82c0.74-2.24,3.16-3.46,5.4-2.73c2.24,0.74,3.46,3.15,2.73,5.4c-0.02,0.07-2.31,7.06-5.27,18.32
			c-5.43,20.66-14.27,60.31-14.04,98.46h19.15c1.33,0,2.59,0.62,3.4,1.68c0.81,1.06,1.08,2.43,0.73,3.72
			c-1.17,4.39-3.16,17.52,2.91,20.11c7.36,3.14,11.91,9.38,11.59,15.89c-0.22,4.52-2.74,8.31-6.92,10.61
			c0.06,3.6-0.48,9.06-3.82,12.38C181.88,464.92,179.73,466.32,176.49,466.32z"/>
	</g>
	<g>
		<path class="st5" d="M161.11,458.13c-2.02,0-6.8-0.45-10.65-4.29c-3.83-3.81-5.42-9.61-4.75-17.24
			c1.57-17.73,1.95-33.01,1.95-33.16c0.06-2.36,2-4.19,4.38-4.17c2.36,0.06,4.23,2.02,4.17,4.38c0,0.15-0.39,15.7-1.98,33.71
			c-0.43,4.86,0.34,8.45,2.21,10.37c1.96,2.01,4.84,1.85,4.87,1.85c2.36-0.16,4.38,1.61,4.56,3.94c0.18,2.33-1.51,4.37-3.84,4.59
			C161.9,458.1,161.58,458.13,161.11,458.13z"/>
	</g>
	<g>
		<path class="st5" d="M291.68,324.83c2.07,0,3.74,1.68,3.74,3.74c0,2.07-1.67,3.74-3.74,3.74c-2.07,0-3.74-1.68-3.74-3.74
			C287.94,326.51,289.61,324.83,291.68,324.83"/>
	</g>
	<g>
		<path class="st5" d="M207.7,324.83c2.07,0,3.74,1.68,3.74,3.74c0,2.07-1.67,3.74-3.74,3.74c-2.07,0-3.74-1.68-3.74-3.74
			C203.97,326.51,205.64,324.83,207.7,324.83"/>
	</g>
	<g>
		<path class="st5" d="M275.52,475c-8.78,0-14.83-3.98-17.19-5.86l-2.38-0.44c-2.02-0.37-3.49-2.12-3.5-4.17
			c-0.13-17.4-0.04-17.79,0.12-18.44c0.56-2.29,2.88-3.7,5.18-3.13c2.11,0.52,3.47,2.52,3.23,4.63c-0.05,1.1-0.04,7.12,0,13.34
			l0.03,0c0.84,0.16,1.61,0.56,2.22,1.15c0.21,0.2,5.92,5.49,15.33,4.14c3.53-0.5,5.73-0.92,7.08-1.21
			c-0.21-3.17-1.05-6.34-2.25-6.92c-5.66-2.76-8.45-5.27-7.97-11.32c0.19-2.35,2.2-4.09,4.61-3.92c2.35,0.19,4.11,2.25,3.92,4.61
			c-0.07,0.83-0.03,1.08-0.02,1.14c-0.01-0.07,0.49,0.48,3.21,1.81c7.17,3.5,7.21,14.39,7.08,17.36c0.02,0.47-0.03,0.95-0.17,1.41
			c-0.89,2.99-3.42,3.97-14.28,5.52C278.29,474.91,276.87,475,275.52,475z"/>
	</g>
	<g>
		<path class="st5" d="M244.12,258.17c-10.27,0-18.01-1.87-18.71-2.04c-2.29-0.57-3.68-2.89-3.11-5.19c0.57-2.29,2.9-3.68,5.18-3.11
			c0.35,0.09,34.04,8.14,52.16-11.34c1.61-1.73,4.32-1.82,6.04-0.22c1.73,1.61,1.83,4.31,0.22,6.05
			C273.89,255.23,257.01,258.17,244.12,258.17z"/>
	</g>
	<g>
		<path class="st5" d="M249.55,53.73c-0.34,0-0.69-0.04-1.03-0.13c-1.9-0.48-3.24-2.18-3.24-4.14V32.87c0-2.36,1.91-4.28,4.28-4.28
			c2.36,0,4.28,1.91,4.28,4.28v4.06c4.47-4.49,10.85-9.26,19.26-11.75c2.28-0.67,4.65,0.62,5.32,2.88c0.67,2.27-0.62,4.64-2.89,5.32
			c-14.76,4.37-22.11,17.94-22.19,18.07C252.58,52.87,251.11,53.73,249.55,53.73z"/>
	</g>
	<g>
		<path class="st5" d="M249.55,53.73c-1.54,0-3.03-0.83-3.79-2.29c-0.07-0.13-7.43-13.69-22.18-18.06
			c-2.26-0.67-3.56-3.05-2.88-5.32c0.67-2.27,3.05-3.56,5.32-2.88c18.3,5.43,26.96,21.6,27.32,22.29c1.1,2.09,0.29,4.68-1.8,5.77
			C250.9,53.57,250.22,53.73,249.55,53.73z"/>
	</g>
	<g>
		<path class="st5" d="M292.66,346.6c-0.96,0-1.89-0.32-2.65-0.92l-13.18-10.39c-1.03-0.81-1.63-2.05-1.63-3.36
			c0-1.87,0-3.1,48.54-71.61c1.37-1.93,4.03-2.38,5.96-1.02c1.93,1.36,2.38,4.04,1.02,5.96c-23.81,33.6-40.53,57.62-45.69,65.6
			l6.7,5.28c5.86-8.56,20.85-30.68,31.95-47.12c1.32-1.96,3.98-2.47,5.94-1.15c1.96,1.32,2.47,3.98,1.15,5.94
			c-0.33,0.49-33.41,49.43-34.75,51.14c-0.7,0.89-1.73,1.47-2.86,1.61C293,346.59,292.83,346.6,292.66,346.6z"/>
	</g>
	<g>
		<path class="st5" d="M206.85,346.6c-0.17,0-0.34-0.01-0.5-0.03c-1.13-0.13-2.15-0.71-2.86-1.6c-1.18-1.49-25.85-37.91-35.2-51.86
			c-0.12-0.18-0.23-0.37-0.32-0.56c-0.42-0.66-0.62-1.14-0.77-1.55c-1.31-1.9-0.89-4.54,0.99-5.91c1.91-1.39,4.56-0.99,5.95,0.92
			c0.63,0.87,0.88,1.48,1.06,1.98l0,0c0,0,0.05,0.07,0.12,0.16c0.15,0.21,0.28,0.44,0.39,0.67c9.26,13.81,25.77,38.15,32.06,47.32
			l6.7-5.28c-7.19-11.1-35.29-50.89-45.22-64.94l-0.9-1.28c-1.36-1.93-0.9-4.6,1.03-5.96c1.93-1.36,4.6-0.9,5.96,1.03l0.9,1.28
			c48.07,68.04,48.07,68.89,48.07,70.94c0,1.31-0.6,2.55-1.63,3.36l-13.18,10.39C208.74,346.28,207.81,346.6,206.85,346.6z
			 M216.07,333.48h0.02H216.07z"/>
	</g>
	<g>
		<path class="st6" d="M224.15,464.85c0.27-0.09,11.14,0,11.14,0"/>
		<path class="st5" d="M224.14,469.13c-1.8,0-3.47-1.14-4.06-2.94c-0.74-2.24,0.48-4.66,2.72-5.4c0.85-0.28,0.94-0.31,12.51-0.21
			c2.36,0.02,4.26,1.95,4.24,4.31c-0.02,2.36-1.94,4.25-4.31,4.24c-4.55-0.04-9.66-0.05-10.66-0.02
			C224.44,469.12,224.29,469.13,224.14,469.13z"/>
	</g>
	<g>
		<path class="st6" d="M220.46,462.15h18.92c0.91,0,1.77-0.39,2.38-1.07l4.44-4.97c0.8-0.9,1.04-2.18,0.6-3.3
			c-2.7-6.83-9.21-11.5-16.54-11.72c-7.69-0.23-14.74,4.49-17.62,11.63c-0.47,1.17-0.2,2.5,0.67,3.41l4.85,5.04
			C218.76,461.79,219.59,462.15,220.46,462.15z"/>
		<path class="st5" d="M239.38,466.42h-18.92c-2.02,0-3.98-0.83-5.38-2.29l-4.85-5.04c-2.04-2.12-2.65-5.25-1.56-7.98
			c3.56-8.84,12.27-14.56,21.71-14.31c9.03,0.27,17.03,5.93,20.39,14.42c1.04,2.64,0.51,5.6-1.39,7.72l-4.44,4.97
			C243.53,465.51,241.5,466.42,239.38,466.42z M221.24,458.2h0.02H221.24z M220.92,457.87h17.97l3.67-4.11
			c-2.23-4.97-7.04-8.24-12.43-8.4c-5.62-0.18-10.86,3.15-13.24,8.31L220.92,457.87z"/>
	</g>
</g>
</svg>
