<?xml version="1.0" encoding="utf-8"?>
<!-- Generator: Adobe Illustrator 26.1.0, SVG Export Plug-In . SVG Version: 6.00 Build 0)  -->
<svg version="1.1" id="Livello_1" xmlns="http://www.w3.org/2000/svg" xmlns:xlink="http://www.w3.org/1999/xlink" x="0px" y="0px"
	 viewBox="0 0 500 500" style="enable-background:new 0 0 500 500;" xml:space="preserve">
<style type="text/css">
	.st0{fill:none;stroke:#313130;stroke-width:8.4996;stroke-linecap:round;stroke-linejoin:round;stroke-miterlimit:10;}
	.st1{fill:#64A4DA;}
	.st2{fill:#474848;}
	.st3{fill:#FFD24C;}
	.st4{fill:none;stroke:#313130;stroke-width:8.3715;stroke-linecap:round;stroke-linejoin:round;stroke-miterlimit:10;}
	.st5{fill:#313130;}
	.st6{fill:#D6D6D6;stroke:#313130;stroke-width:10.6557;stroke-linecap:round;stroke-linejoin:round;stroke-miterlimit:10;}
</style>
<g>
	<path class="st0" d="M262.1,25c-17.2,2.5-27.2,16.4-27.2,16.4l2.3-16.3"/>
	<path class="st1" d="M251.4,442.6h6.4c2.3,0,4.4-1.3,5.3-3.4l7.2-15.1h-14.9L251.4,442.6z"/>
	<path class="st0" d="M270.3,424.1l-7.2,15.1c-1,2.1-3.1,3.4-5.3,3.4h-6.4"/>
	<g>
		<path class="st2" d="M234.2,471c1,1,42.2,0,42.2,0s5.7,0,5.7-6.2c0-4.6-13.2-13.9-14.4-14.6l-7-1l-9-3h-15.2l-2.2,3.9
			C234.2,450,233.2,469.9,234.2,471z"/>
		<path class="st0" d="M265.3,449l-8.3-4h-7.8h-15.2l-2.2,3.9c0,0-1,22.1,0,23.1l6.6,0c1.5,0,6.7,0,8.4,0c0.5,0,4.3-1.6,4.8-1.6
			c0,0,14.9,2.7,23,2.1c8.4-0.6,13.4-4.2,6-13.3L265.3,449z"/>
	</g>
	<g>
		<path class="st2" d="M224.2,473.4c1,1,42.2,0,42.2,0s5.7,0,5.7-6.2c0-4.6-13.2-13.9-14.4-14.6l-7-1l-9-3h-15.2l-2.2,3.9
			C224.2,452.4,223.2,472.3,224.2,473.4z"/>
		<path class="st0" d="M255.3,451.4l-8.3-4h-7.8h-15.2l-2.2,3.9c0,0-1,22.1,0,23.1l6.6,0c1.5,0,6.7,0,8.4,0c0.5,0,4.3-1.6,4.8-1.6
			c0,0,14.9,2.7,23,2.1c8.4-0.6,13.4-4.2,6-13.3L255.3,451.4z"/>
	</g>
	<path class="st3" d="M203.3,421c-8.6-1.7-18.6-9-25.9-15.3c-6.5-5.6-10.3-13.8-10.3-22.4l0.1-275.3c0,0-0.6-20.1,3.8-28.4
		c27.8-53.4,120.3-55.4,143.8,0c5.7,10.4,6.9,28.4,6.9,28.4l-0.1,275.3c0,8.5-3.6,16.6-10,22.1c-5.7,4.9-14.3,12.5-26.1,15.5
		c-3.3,0.9-29.3,4-31.2,4.4l-7.7,16.3c-1,2.1-3.1,3.4-5.3,3.4h-17.4c-3.2,0-5.8-2.6-5.8-5.8v-15.8h-4.9L203.3,421z"/>
	<g>
		<path class="st1" d="M214.1,294.9c-2.2,29.9,7.1,50.8,30.2,50.8c24.9,0,32.8-20.7,30.7-50.8h44.3v103.2L290,421.3l-32.2,7.5
			l-11.3,12.8l-22.5,5.8l-6.1-24l-27.6-6.4l-22.8-21.2L165,294.9H214.1z"/>
		<path class="st4" d="M167.8,294.9h46.3c-2.2,29.9,7.1,50.8,30.2,50.8c24.9,0,32.8-20.7,30.7-50.8h44.3"/>
	</g>
	<g id="LACCETTI">
		<path class="st1" d="M321,243.6c-13.5,19.1-46.7,66.1-46.7,67.7l12.9,10.2c0.9-1.2,23.2-34,33.8-49.8"/>
		<path class="st1" d="M168.9,243c13.2,18.6,47.2,66.7,47.2,68.3l-12.9,10.2c-0.9-1.2-23.8-34.9-34.3-50.5v-0.1
			c-0.9-1.2-0.5-1.1-1.1-2.1"/>
		<circle class="st5" cx="286.2" cy="308" r="3.7"/>
		<circle class="st5" cx="204" cy="308" r="3.7"/>
		<path class="st4" d="M321,243.6c-13.5,19.1-46.7,66.1-46.7,67.7l12.9,10.2c0.9-1.2,23.2-34,33.8-49.8"/>
		<path class="st4" d="M168.9,243c13.2,18.6,47.2,66.7,47.2,68.3l-12.9,10.2c-0.9-1.2-23.8-34.9-34.3-50.5v-0.1
			c-0.9-1.2-0.5-1.1-1.1-2.1"/>
	</g>
	<path class="st3" d="M180.3,408c-1-0.7-1.8-1.6-2.8-2.3c-5.2-4.6-8.9-10.7-10-17.5C169.4,394.8,173.1,401.7,180.3,408z"/>
	<path class="st3" d="M204.6,421.3l-1.3-0.4c-5.3-1.1-11.2-4.2-16.6-8.1c4.7,3,10.7,5.8,17.8,8.1L204.6,421.3z"/>
	<path class="st0" d="M203.3,421c-8.6-1.7-18.6-9-25.9-15.3c-6.5-5.6-10.3-13.8-10.3-22.4l0.1-275.3c0,0-0.6-20.1,3.8-28.4
		c27.8-53.4,120.3-55.4,143.8,0c5.7,10.4,6.9,28.4,6.9,28.4l-0.1,275.3c0,8.5-3.6,16.6-10,22.1c-5.7,4.9-14.3,12.5-26.1,15.5
		c-3.3,0.9-26.7,4-28.6,4.4l-7.7,16.3c-1,2.1-3.1,3.4-5.3,3.4h-17.4c-3.2,0-5.8-2.6-5.8-5.8v-15.8h-4.9L203.3,421z"/>
	<g>
		<path class="st2" d="M257.8,366.2c-3.6,20.4,2.4,14,10.7,28.1c8.4,14.1-3.3,17.5-3.3,17.5c0.8,27.8-23.1,0-23.1,0
			c-6.2,6.5-9.6,0.8-9.5-10.1c0.1-10.9,3.2-36,3.2-36L257.8,366.2z"/>
		<path class="st3" d="M234.7,365.7l22.3,0l-8.9-99.9C227.7,304.7,234.7,365.7,234.7,365.7z"/>
		<path class="st0" d="M241.6,410.5c1.8,5.5,7.3,11.9,16.4,13.2c9.1,1.4,7.1-13.3,7.1-13.3c10.4-3.3,8.9-15.1-1.9-19.8
			c-10.8-4.6-5.3-25-5.3-25h-23.2c-0.9-39,3.7-67.7,9.8-90.7c1.7-6.7,4.4-13.9,6.4-18c0,0-0.9,74.1,7,108.7"/>
		<path class="st0" d="M234.7,365.7c0,0-0.4,15.3-2,33.2c-1.6,18,11.6,16.8,11.6,16.8"/>
	</g>
	<rect x="322.4" y="109.2" class="st6" width="12.6" height="62.8"/>
	<rect x="169.6" y="123.1" class="st6" width="152.7" height="35.1"/>
</g>
</svg>
