<?xml version="1.0" encoding="utf-8"?>
<!-- Generator: Adobe Illustrator 23.0.5, SVG Export Plug-In . SVG Version: 6.00 Build 0)  -->
<svg version="1.1" id="Livello_1" xmlns="http://www.w3.org/2000/svg" xmlns:xlink="http://www.w3.org/1999/xlink" x="0px" y="0px"
	 viewBox="0 0 500 500" style="enable-background:new 0 0 500 500;" xml:space="preserve">
<style type="text/css">
	.st0{fill:#464847;}
	.st1{fill:#FFD14C;}
	.st2{fill:#FFFFFF;}
	.st3{fill:#D5D5D5;}
	.st4{fill:#65A4D9;}
	.st5{fill:none;stroke:#313130;stroke-width:8.6853;stroke-linecap:round;stroke-linejoin:round;stroke-miterlimit:10;}
	.st6{fill:#313130;}
	.st7{fill:#484848;stroke:#313130;stroke-width:8.6853;stroke-linecap:round;stroke-linejoin:round;stroke-miterlimit:10;}
</style>
<g>
	<path class="st0" d="M151.61,405c0,0-3.2,25.6-3.31,36.79c-0.11,11.18,3.42,16.92,9.73,10.33c0,0,24.37,28.36,23.58-0.03
		c0,0,11.94-3.47,3.39-17.91c-8.55-14.44-14.64-7.86-10.97-28.7L151.61,405z"/>
	<path class="st0" d="M348.39,405c0,0,3.2,25.6,3.31,36.79c0.11,11.18-3.42,16.92-9.73,10.33c0,0-24.37,28.36-23.58-0.03
		c0,0-11.94-3.47-3.39-17.91c8.55-14.44,14.64-7.86,10.97-28.7L348.39,405z"/>
	<path class="st1" d="M328.42,284.34L326.86,405l22.75-0.02C349.61,404.98,349.24,324.12,328.42,284.34"/>
	<path class="st1" d="M170.09,284.34L171.66,405l-22.75-0.02C148.91,404.98,149.28,324.12,170.09,284.34"/>
	<path class="st1" d="M328.42,390.62c0,8.67-3.68,16.96-10.25,22.61c-7.47,6.44-17.73,14.06-26.62,15.86l-7.89,26.99
		c-1,2.11-3.13,3.46-5.46,3.46l-17.76,0.21c-3.28,0,1.32,6.69,1.32,3.41l-7.26-36.01h-4.96h-4.96l-3.45,15.97
		c0,3.28,0.79,6.1-2.49,6.1h-17.82c-2.37,0-4.52-1.37-5.52-3.51l-7.77-16.61c-8.78-1.77-18.97-9.22-26.41-15.6
		c-6.65-5.76-10.55-14.09-10.55-22.87l0.14-281.33c0,0-0.56-20.49,3.89-29.04c28.42-54.55,122.95-56.65,146.91,0
		c5.78,10.61,7.02,29.04,7.02,29.04L328.42,390.62z"/>
	<path class="st2" d="M283.26,104.43c15.48,0,28.03,12.55,28.03,28.03c0,15.48-12.55,28.03-28.03,28.03
		c-15.48,0-28.03-12.55-28.03-28.03C255.23,116.98,267.78,104.43,283.26,104.43"/>
	<path class="st2" d="M214.26,104.43c15.48,0,28.03,12.55,28.03,28.03c0,15.48-12.55,28.03-28.03,28.03s-28.03-12.55-28.03-28.03
		C186.22,116.98,198.77,104.43,214.26,104.43"/>
	<path class="st3" d="M283.2,91.45c-14.39,0-27.17,7.57-34.37,18.86c-7.32-11.29-20.1-18.86-34.61-18.86
		c-22.71,0-40.94,18.36-40.94,41.07c0,22.58,18.24,40.94,40.94,40.94c14.52,0,27.29-7.57,34.61-18.86
		c7.2,11.29,19.98,18.86,34.37,18.86c22.7,0,41.07-18.36,41.07-40.94C324.27,109.82,305.91,91.45,283.2,91.45 M214.22,161.43
		c-16.01,0-28.91-12.9-28.91-28.91c0-16.01,12.9-29.03,28.91-29.03c16,0,29.03,13.03,29.03,29.03
		C243.25,148.53,230.22,161.43,214.22,161.43 M283.2,161.43c-16.01,0-28.91-12.9-28.91-28.91c0-16.01,12.9-29.03,28.91-29.03
		s29.03,13.03,29.03,29.03C312.23,148.53,299.21,161.43,283.2,161.43"/>
	<path class="st4" d="M195.82,319.89v29.56c0,0-3.24,21.46-25.26,21.14c0,0-15.64,41.45,36.96,58.5l9.08,20.12l18.44-0.49
		c0,0,10.35,3.31,9.53-21.58h9.93l7.44,37.23c0,0-7.77-4.62,1.53-4.62l17.07,0.41c0,0,3.75-10.19,11.01-31.07
		c0,0,33.08-5.22,35.97-31.28l0.9-27.22c0,0-32.97,2.32-27.02-50.7H195.82z"/>
	<path class="st4" d="M328.42,262.1c-14,19.77-48.49,68.61-48.49,70.2l13.38,10.55c0.98-1.24,24.02-35.28,35.1-51.68"/>
	<path class="st4" d="M170.65,261.48c13.65,19.32,48.93,69.23,48.93,70.82l-13.38,10.55c-0.98-1.24-24.73-36.25-35.54-52.38v-0.09
		c-0.89-1.24-0.47-1.18-1.18-2.15"/>
	<path class="st5" d="M328.42,282.04c2.13,4.25,5.05,10.73,6.83,17.55c6.2,23.49,15.24,65.5,14.36,105.39h-23.76
		c0,0,5.58,20.83-5.41,25.53c-11.08,4.79-12.59,16.84-1.95,20.21c0,0-2.04,14.98,7.27,13.56c9.31-1.33,14.89-7.89,16.75-13.47"/>
	
		<ellipse transform="matrix(0.1602 -0.9871 0.9871 0.1602 107.1067 390.8437)" class="st5" cx="283.24" cy="132.48" rx="29" ry="29"/>
	
		<ellipse transform="matrix(0.1602 -0.9871 0.9871 0.1602 49.1693 322.7464)" class="st5" cx="214.26" cy="132.48" rx="29" ry="29"/>
	<path class="st5" d="M248.83,154.58c-7.27,11.34-20.03,18.88-34.57,18.88c-22.69,0-41.04-18.35-41.04-40.95
		c0-22.69,18.35-41.04,41.04-41.04c14.54,0,27.3,7.53,34.57,18.88c7.18-11.35,19.94-18.88,34.39-18.88
		c22.69,0,41.04,18.35,41.04,41.04c0,22.6-18.35,40.95-41.04,40.95C268.77,173.46,256,165.93,248.83,154.58z"/>
	<path class="st6" d="M274.68,123.91c5.98,0,10.83,4.85,10.83,10.83c0,5.98-4.85,10.82-10.83,10.82c-5.98,0-10.83-4.85-10.83-10.82
		C263.85,128.76,268.7,123.91,274.68,123.91"/>
	<path class="st6" d="M218.5,123.91c5.98,0,10.83,4.85,10.83,10.83c0,5.98-4.85,10.82-10.83,10.82s-10.83-4.85-10.83-10.82
		C207.67,128.76,212.52,123.91,218.5,123.91"/>
	<path class="st5" d="M170.56,370.59h1.66c13.03,0,23.6-10.57,23.6-23.6v-19.21"/>
	<path class="st5" d="M261.76,463.16l-7.26-36.01h-4.96h-4.96l-6.66,20.21c0,3.28-5.23,1.88-8.51,1.88l-8.59-0.02
		c-2.37,0-4.52-1.37-5.52-3.51l-7.77-16.61c-8.78-1.77-18.97-9.22-26.41-15.6c-6.65-5.76-10.55-14.09-10.55-22.87l0.14-281.33
		c0,0-0.56-20.49,3.89-29.04c28.42-54.55,122.95-56.65,146.91,0c5.78,10.61,7.02,29.04,7.02,29.04l-0.1,281.33
		c0,8.67-3.68,16.96-10.25,22.61c-7.47,6.44-17.73,14.06-26.62,15.86l-7.22,34.26"/>
	<path class="st5" d="M303.25,328.31v18.68c0,13.04,10.57,23.6,23.6,23.6h1.57"/>
	<polyline class="st5" points="211.51,319.89 249.54,319.89 288,319.89 	"/>
	<path class="st5" d="M339.72,456.07c0,0,13.47,1.23,11.85-17.12c-1.62-18.35-2-33.95-2-33.95"/>
	<path class="st5" d="M170.19,280.73c0,0-2.35,7.13-5.43,18.85c-6.17,23.51-15.29,65.47-14.33,105.42h23.72
		c0,0-5.62,20.82,5.44,25.54c11.06,4.72,12.57,16.77,1.91,20.14c0,0,2.03,14.98-7.29,13.63c-9.31-1.35-14.84-7.96-16.73-13.49"/>
	<path class="st5" d="M160.28,456.07c0,0-13.47,1.23-11.85-17.12c1.62-18.35,2-33.95,2-33.95"/>
	<path class="st6" d="M292.32,325.09c2.1,0,3.8,1.7,3.8,3.8c0,2.1-1.7,3.8-3.8,3.8c-2.1,0-3.8-1.7-3.8-3.8
		C288.52,326.79,290.22,325.09,292.32,325.09"/>
	<path class="st6" d="M207.06,325.09c2.1,0,3.8,1.7,3.8,3.8c0,2.1-1.7,3.8-3.8,3.8c-2.1,0-3.8-1.7-3.8-3.8
		C203.26,326.79,204.96,325.09,207.06,325.09"/>
	<path class="st5" d="M226.09,251.12c0,0,36.76,9.19,57.19-12.77"/>
	<path class="st5" d="M274.68,25c-17.03,5.05-25.13,20.48-25.13,20.48V28.65"/>
	<path class="st5" d="M224.41,25c17.03,5.05,25.13,20.48,25.13,20.48"/>
	<path class="st5" d="M328.42,262.1c-14,19.77-48.49,68.61-48.49,70.2l13.38,10.55c0.98-1.24,24.02-35.28,35.1-51.68"/>
	<path class="st5" d="M170.65,261.48c13.65,19.32,48.93,69.23,48.93,70.82l-13.38,10.55c-0.98-1.24-24.73-36.25-35.54-52.38v-0.09
		c-0.89-1.24-0.47-1.18-1.18-2.15"/>
	<g>
		<path class="st7" d="M220.12,467.25c0.27-0.09,11.31,0,11.31,0"/>
		<path class="st7" d="M216.38,464.51h19.21c0.92,0,1.8-0.39,2.42-1.08l4.51-5.05c0.82-0.91,1.06-2.22,0.61-3.36
			c-2.74-6.93-9.35-11.68-16.8-11.9c-7.81-0.23-14.97,4.56-17.89,11.81c-0.48,1.18-0.2,2.54,0.68,3.46l4.92,5.12
			C214.66,464.15,215.5,464.51,216.38,464.51z"/>
	</g>
	<path class="st7" d="M264.52,475h18.3c0,0,0,0,0,0l3.02,0c1.42,0,2.57-1.15,2.57-2.57v-3.69c-1.82-6.62-7.74-11.3-14.49-11.5
		c-7.07-0.21-13.5,4.54-15.42,11.5v3.69c0,1.42,1.15,2.57,2.57,2.57L264.52,475C264.52,475,264.52,475,264.52,475z"/>
</g>
<g>
	<path class="st0" d="M151.61,405c0,0-3.2,25.6-3.31,36.79c-0.11,11.18,3.42,16.92,9.73,10.33c0,0,24.37,28.36,23.58-0.03
		c0,0,11.94-3.47,3.39-17.91c-8.55-14.44-14.64-7.86-10.97-28.7L151.61,405z"/>
	<path class="st0" d="M348.39,405c0,0,3.2,25.6,3.31,36.79c0.11,11.18-3.42,16.92-9.73,10.33c0,0-24.37,28.36-23.58-0.03
		c0,0-11.94-3.47-3.39-17.91c8.55-14.44,14.64-7.86,10.97-28.7L348.39,405z"/>
	<path class="st1" d="M328.42,284.34L326.86,405l22.75-0.02C349.61,404.98,349.24,324.12,328.42,284.34"/>
	<path class="st1" d="M170.09,284.34L171.66,405l-22.75-0.02C148.91,404.98,149.28,324.12,170.09,284.34"/>
	<path class="st1" d="M328.42,390.62c0,8.67-3.68,16.96-10.25,22.61c-7.47,6.44-17.73,14.06-26.62,15.86l-7.89,26.99
		c-1,2.11-3.13,3.46-5.46,3.46l-17.76,0.21c-3.28,0,1.32,6.69,1.32,3.41l-7.26-36.01h-4.96h-4.96l-3.45,15.97
		c0,3.28,0.79,6.1-2.49,6.1h-17.82c-2.37,0-4.52-1.37-5.52-3.51l-7.77-16.61c-8.78-1.77-18.97-9.22-26.41-15.6
		c-6.65-5.76-10.55-14.09-10.55-22.87l0.14-281.33c0,0-0.56-20.49,3.89-29.04c28.42-54.55,122.95-56.65,146.91,0
		c5.78,10.61,7.02,29.04,7.02,29.04L328.42,390.62z"/>
	<path class="st2" d="M283.26,104.43c15.48,0,28.03,12.55,28.03,28.03c0,15.48-12.55,28.03-28.03,28.03
		c-15.48,0-28.03-12.55-28.03-28.03C255.23,116.98,267.78,104.43,283.26,104.43"/>
	<path class="st2" d="M214.26,104.43c15.48,0,28.03,12.55,28.03,28.03c0,15.48-12.55,28.03-28.03,28.03s-28.03-12.55-28.03-28.03
		C186.22,116.98,198.77,104.43,214.26,104.43"/>
	<path class="st3" d="M283.2,91.45c-14.39,0-27.17,7.57-34.37,18.86c-7.32-11.29-20.1-18.86-34.61-18.86
		c-22.71,0-40.94,18.36-40.94,41.07c0,22.58,18.24,40.94,40.94,40.94c14.52,0,27.29-7.57,34.61-18.86
		c7.2,11.29,19.98,18.86,34.37,18.86c22.7,0,41.07-18.36,41.07-40.94C324.27,109.82,305.91,91.45,283.2,91.45 M214.22,161.43
		c-16.01,0-28.91-12.9-28.91-28.91c0-16.01,12.9-29.03,28.91-29.03c16,0,29.03,13.03,29.03,29.03
		C243.25,148.53,230.22,161.43,214.22,161.43 M283.2,161.43c-16.01,0-28.91-12.9-28.91-28.91c0-16.01,12.9-29.03,28.91-29.03
		s29.03,13.03,29.03,29.03C312.23,148.53,299.21,161.43,283.2,161.43"/>
	<path class="st4" d="M195.82,319.89v29.56c0,0-3.24,21.46-25.26,21.14c0,0-15.64,41.45,36.96,58.5l9.08,20.12l18.44-0.49
		c0,0,10.35,3.31,9.53-21.58h9.93l7.44,37.23c0,0-7.77-4.62,1.53-4.62l17.07,0.41c0,0,3.75-10.19,11.01-31.07
		c0,0,33.08-5.22,35.97-31.28l0.9-27.22c0,0-32.97,2.32-27.02-50.7H195.82z"/>
	<path class="st4" d="M328.42,262.1c-14,19.77-48.49,68.61-48.49,70.2l13.38,10.55c0.98-1.24,24.02-35.28,35.1-51.68"/>
	<path class="st4" d="M170.65,261.48c13.65,19.32,48.93,69.23,48.93,70.82l-13.38,10.55c-0.98-1.24-24.73-36.25-35.54-52.38v-0.09
		c-0.89-1.24-0.47-1.18-1.18-2.15"/>
	<path class="st5" d="M328.42,282.04c2.13,4.25,5.05,10.73,6.83,17.55c6.2,23.49,15.24,65.5,14.36,105.39h-23.76
		c0,0,5.58,20.83-5.41,25.53c-11.08,4.79-12.59,16.84-1.95,20.21c0,0-2.04,14.98,7.27,13.56c9.31-1.33,14.89-7.89,16.75-13.47"/>
	
		<ellipse transform="matrix(0.1602 -0.9871 0.9871 0.1602 107.1067 390.8437)" class="st5" cx="283.24" cy="132.48" rx="29" ry="29"/>
	
		<ellipse transform="matrix(0.1602 -0.9871 0.9871 0.1602 49.1693 322.7464)" class="st5" cx="214.26" cy="132.48" rx="29" ry="29"/>
	<path class="st5" d="M248.83,154.58c-7.27,11.34-20.03,18.88-34.57,18.88c-22.69,0-41.04-18.35-41.04-40.95
		c0-22.69,18.35-41.04,41.04-41.04c14.54,0,27.3,7.53,34.57,18.88c7.18-11.35,19.94-18.88,34.39-18.88
		c22.69,0,41.04,18.35,41.04,41.04c0,22.6-18.35,40.95-41.04,40.95C268.77,173.46,256,165.93,248.83,154.58z"/>
	<path class="st6" d="M274.68,123.91c5.98,0,10.83,4.85,10.83,10.83c0,5.98-4.85,10.82-10.83,10.82c-5.98,0-10.83-4.85-10.83-10.82
		C263.85,128.76,268.7,123.91,274.68,123.91"/>
	<path class="st6" d="M218.5,123.91c5.98,0,10.83,4.85,10.83,10.83c0,5.98-4.85,10.82-10.83,10.82s-10.83-4.85-10.83-10.82
		C207.67,128.76,212.52,123.91,218.5,123.91"/>
	<path class="st5" d="M170.56,370.59h1.66c13.03,0,23.6-10.57,23.6-23.6v-19.21"/>
	<path class="st5" d="M261.76,463.16l-7.26-36.01h-4.96h-4.96l-6.66,20.21c0,3.28-5.23,1.88-8.51,1.88l-8.59-0.02
		c-2.37,0-4.52-1.37-5.52-3.51l-7.77-16.61c-8.78-1.77-18.97-9.22-26.41-15.6c-6.65-5.76-10.55-14.09-10.55-22.87l0.14-281.33
		c0,0-0.56-20.49,3.89-29.04c28.42-54.55,122.95-56.65,146.91,0c5.78,10.61,7.02,29.04,7.02,29.04l-0.1,281.33
		c0,8.67-3.68,16.96-10.25,22.61c-7.47,6.44-17.73,14.06-26.62,15.86l-7.22,34.26"/>
	<path class="st5" d="M303.25,328.31v18.68c0,13.04,10.57,23.6,23.6,23.6h1.57"/>
	<polyline class="st5" points="211.51,319.89 249.54,319.89 288,319.89 	"/>
	<path class="st5" d="M339.72,456.07c0,0,13.47,1.23,11.85-17.12c-1.62-18.35-2-33.95-2-33.95"/>
	<path class="st5" d="M170.19,280.73c0,0-2.35,7.13-5.43,18.85c-6.17,23.51-15.29,65.47-14.33,105.42h23.72
		c0,0-5.62,20.82,5.44,25.54c11.06,4.72,12.57,16.77,1.91,20.14c0,0,2.03,14.98-7.29,13.63c-9.31-1.35-14.84-7.96-16.73-13.49"/>
	<path class="st5" d="M160.28,456.07c0,0-13.47,1.23-11.85-17.12c1.62-18.35,2-33.95,2-33.95"/>
	<path class="st6" d="M292.32,325.09c2.1,0,3.8,1.7,3.8,3.8c0,2.1-1.7,3.8-3.8,3.8c-2.1,0-3.8-1.7-3.8-3.8
		C288.52,326.79,290.22,325.09,292.32,325.09"/>
	<path class="st6" d="M207.06,325.09c2.1,0,3.8,1.7,3.8,3.8c0,2.1-1.7,3.8-3.8,3.8c-2.1,0-3.8-1.7-3.8-3.8
		C203.26,326.79,204.96,325.09,207.06,325.09"/>
	<path class="st5" d="M226.09,251.12c0,0,36.76,9.19,57.19-12.77"/>
	<path class="st5" d="M274.68,25c-17.03,5.05-25.13,20.48-25.13,20.48V28.65"/>
	<path class="st5" d="M224.41,25c17.03,5.05,25.13,20.48,25.13,20.48"/>
	<path class="st5" d="M328.42,262.1c-14,19.77-48.49,68.61-48.49,70.2l13.38,10.55c0.98-1.24,24.02-35.28,35.1-51.68"/>
	<path class="st5" d="M170.65,261.48c13.65,19.32,48.93,69.23,48.93,70.82l-13.38,10.55c-0.98-1.24-24.73-36.25-35.54-52.38v-0.09
		c-0.89-1.24-0.47-1.18-1.18-2.15"/>
	<g>
		<path class="st7" d="M220.12,467.25c0.27-0.09,11.31,0,11.31,0"/>
		<path class="st7" d="M216.38,464.51h19.21c0.92,0,1.8-0.39,2.42-1.08l4.51-5.05c0.82-0.91,1.06-2.22,0.61-3.36
			c-2.74-6.93-9.35-11.68-16.8-11.9c-7.81-0.23-14.97,4.56-17.89,11.81c-0.48,1.18-0.2,2.54,0.68,3.46l4.92,5.12
			C214.66,464.15,215.5,464.51,216.38,464.51z"/>
	</g>
	<path class="st7" d="M264.52,475h18.3c0,0,0,0,0,0l3.02,0c1.42,0,2.57-1.15,2.57-2.57v-3.69c-1.82-6.62-7.74-11.3-14.49-11.5
		c-7.07-0.21-13.5,4.54-15.42,11.5v3.69c0,1.42,1.15,2.57,2.57,2.57L264.52,475C264.52,475,264.52,475,264.52,475z"/>
</g>
</svg>
