<?xml version="1.0" encoding="utf-8"?>
<!-- Generator: Adobe Illustrator 23.0.5, SVG Export Plug-In . SVG Version: 6.00 Build 0)  -->
<svg version="1.1" id="Livello_1" xmlns="http://www.w3.org/2000/svg" xmlns:xlink="http://www.w3.org/1999/xlink" x="0px" y="0px"
	 viewBox="0 0 500 500" style="enable-background:new 0 0 500 500;" xml:space="preserve">
<style type="text/css">
	.st0{fill:#464847;}
	.st1{fill:#FFD14C;}
	.st2{fill:#FFFFFF;}
	.st3{fill:#D5D5D5;}
	.st4{fill:#E6332A;}
	.st5{fill:#313130;}
	.st6{fill:#484848;}
</style>
<g>
	<g>
		<path class="st0" d="M256.7,447.1c-0.1,0.5,0,17.4,0,17.4l3.5,0.6c0,0,7.1,7,18.9,5.3c11.8-1.7,10.8-2.6,10.8-2.6s0.6-11-4.7-13.6
			s-5.8-3.9-5.6-7.1"/>
	</g>
	<g>
		<path class="st0" d="M153.1,403.5c0,0-3.1,25.2-3.3,36.2s3.4,16.7,9.6,10.2c0,0,24,27.9,23.2,0c0,0,11.8-3.4,3.3-17.6
			s-14.4-7.8-10.8-28.3L153.1,403.5z"/>
	</g>
	<g>
		<path class="st0" d="M346.9,403.5c0,0,3.1,25.2,3.3,36.2c0.1,11-3.4,16.7-9.6,10.2c0,0-24,27.9-23.2,0c0,0-11.8-3.4-3.3-17.6
			s14.4-7.8,10.8-28.3L346.9,403.5z"/>
	</g>
	<g>
		<path class="st1" d="M327.2,284.7l-1.5,118.8l22.4,0C348.1,403.5,347.7,323.9,327.2,284.7"/>
	</g>
	<g>
		<path class="st1" d="M171.3,284.7l1.5,118.8l-22.4,0C150.4,403.5,150.8,323.9,171.3,284.7"/>
	</g>
	<g>
		<path class="st1" d="M327.2,389.4c0,8.5-3.6,16.7-10.1,22.3c-7.4,6.3-17.5,13.9-26.2,15.6l-7.8,16.4c-1,2.1-3.1,3.4-5.4,3.4h-17.5
			c-3.2,0-5.9-2.6-5.9-5.9v-15.9h-4.9h-4.9v15.9c0,3.2-2.6,5.9-5.9,5.9h-17.6c-2.3,0-4.4-1.4-5.4-3.5l-7.7-16.4
			c-8.6-1.8-18.7-9.1-26-15.4c-6.6-5.7-10.4-13.9-10.4-22.5l0.1-277.1c0,0-0.6-20.2,3.8-28.6c28-53.7,121.1-55.8,144.7,0
			c5.7,10.4,6.9,28.6,6.9,28.6L327.2,389.4z"/>
	</g>
	<g>
		<path class="st2" d="M282.8,107.5c15.3,0,27.6,12.4,27.6,27.6s-12.4,27.6-27.6,27.6s-27.6-12.4-27.6-27.6
			C255.1,119.9,267.5,107.5,282.8,107.5"/>
	</g>
	<g>
		<path class="st2" d="M214.8,107.5c15.3,0,27.6,12.4,27.6,27.6s-12.4,27.6-27.6,27.6s-27.6-12.4-27.6-27.6S199.6,107.5,214.8,107.5
			"/>
	</g>
	<g>
		<path class="st3" d="M282.7,94.7c-14.2,0-26.8,7.4-33.9,18.6c-7.2-11.1-19.8-18.6-34.1-18.6c-22.4,0-40.3,18.1-40.3,40.5
			c0,22.2,18,40.3,40.3,40.3c14.3,0,26.9-7.4,34.1-18.6c7.1,11.1,19.7,18.6,33.9,18.6c22.4,0,40.5-18.1,40.5-40.3
			C323.1,112.8,305.1,94.7,282.7,94.7 M214.8,163.6c-15.8,0-28.5-12.7-28.5-28.5s12.7-28.6,28.5-28.6s28.6,12.8,28.6,28.6
			C243.4,150.9,230.5,163.6,214.8,163.6 M282.7,163.6c-15.8,0-28.5-12.7-28.5-28.5s12.7-28.6,28.5-28.6s28.6,12.8,28.6,28.6
			S298.5,163.6,282.7,163.6"/>
	</g>
	<g>
		<path class="st4" d="M196.6,319.7v29.1c0,0-3.2,21.1-24.9,20.8c0,0-15.4,40.8,36.4,57.6l8.9,19.8l24.6,0c0,0,3.7,2.7,2.9-21.8h9.8
			l0.2,17.1c0,0-0.5,4.6,8.7,4.6h14.5c0,0,6,0.8,13.1-19.8c0,0,32.6-5.1,35.4-30.8l0.9-26.8c0,0-32.5,2.3-26.6-49.9L196.6,319.7
			L196.6,319.7z"/>
	</g>
	<g>
		<path class="st4" d="M327.2,262.8c-13.8,19.5-47.8,67.6-47.8,69.1l13.2,10.4c1-1.2,23.7-34.8,34.6-50.9"/>
	</g>
	<g>
		<path class="st4" d="M171.9,262.2c13.4,19,48.2,68.2,48.2,69.8l-13.2,10.4c-1-1.2-24.4-35.7-35-51.6v-0.1
			c-0.9-1.2-0.5-1.2-1.2-2.1"/>
	</g>
	<g>
		<path class="st5" d="M323.4,466.3c-3.2,0-5.3-1.4-6.6-2.6c-3.4-3.3-3.9-8.8-3.8-12.4c-4.1-2.3-6.7-6.1-6.9-10.6
			c-0.3-6.5,4.2-12.8,11.6-16c6.2-2.6,3.9-16.5,2.9-20.1c-0.3-1.3-0.1-2.6,0.7-3.7s2.1-1.7,3.4-1.7h19.2
			c0.2-38.5-8.6-77.9-14.1-98.4c-1.3-5-3.5-10.6-6.4-16.5c-1.1-2.1-0.2-4.7,1.9-5.7c2.1-1.1,4.7-0.2,5.7,1.9
			c3.2,6.4,5.6,12.5,7,18.1c5.7,21.7,15.2,64.1,14.3,105c0,2.3-2,4.2-4.3,4.2h-18.2c1.3,9,0.4,20.9-8.9,24.8c-4.6,2-6.5,5.3-6.4,7.7
			c0.1,2.4,2.3,3.6,4.1,4.2c2,0.6,3.2,2.6,3,4.6c-0.4,3.1,0,7.3,1.1,8.4c0.1,0.1,0.3,0.3,1.2,0.1c7.5-1.1,11.7-6.3,13.1-10.4
			c0.8-2.2,3.2-3.5,5.4-2.7c2.2,0.8,3.5,3.2,2.7,5.4c-2.1,6.4-8.7,14.5-20,16.1C324.6,466.3,324,466.3,323.4,466.3z"/>
	</g>
	<g>
		<path class="st5" d="M282.7,168c-18.1,0-32.8-14.7-32.8-32.8s14.7-32.8,32.8-32.8s32.8,14.7,32.8,32.8S300.9,168,282.7,168z
			 M282.7,110.8c-13.4,0-24.3,10.9-24.3,24.3s10.9,24.3,24.3,24.3s24.3-10.9,24.3-24.3S296.1,110.8,282.7,110.8z"/>
	</g>
	<g>
		<path class="st5" d="M214.8,168c-18.1,0-32.8-14.7-32.8-32.8s14.7-32.8,32.8-32.8s32.8,14.7,32.8,32.8S232.9,168,214.8,168z
			 M214.8,110.8c-13.4,0-24.3,10.9-24.3,24.3s10.9,24.3,24.3,24.3s24.3-10.9,24.3-24.3S228.2,110.8,214.8,110.8z"/>
	</g>
	<g>
		<path class="st5" d="M282.7,179.8c-13.3,0-25.5-5.8-33.9-15.7c-8.4,9.9-20.8,15.7-34,15.7c-24.6,0-44.7-20-44.7-44.6
			c0-24.7,20.1-44.7,44.7-44.7c13.3,0,25.6,5.8,34,15.7c8.3-9.9,20.6-15.7,33.9-15.7c24.6,0,44.7,20.1,44.7,44.7
			C327.4,159.8,307.4,179.8,282.7,179.8z M248.8,152.6L248.8,152.6c1.5,0,2.8,0.8,3.6,2c6.6,10.4,17.9,16.6,30.3,16.6
			c19.9,0,36.1-16.2,36.1-36.1c0-19.9-16.2-36.1-36.1-36.1c-12.4,0-23.7,6.2-30.3,16.6c-0.8,1.2-2.1,2-3.6,2h0c-1.5,0-2.8-0.7-3.6-2
			c-6.7-10.4-18.1-16.6-30.4-16.6c-19.9,0-36.1,16.2-36.1,36.1c0,19.9,16.2,36.1,36.1,36.1c12.4,0,23.8-6.2,30.4-16.6
			C246,153.4,247.4,152.6,248.8,152.6z"/>
	</g>
	<g>
		<path class="st5" d="M274.3,126.7c5.9,0,10.7,4.8,10.7,10.7s-4.8,10.7-10.7,10.7s-10.7-4.8-10.7-10.7
			C263.6,131.5,268.4,126.7,274.3,126.7"/>
	</g>
	<g>
		<path class="st5" d="M219,126.7c5.9,0,10.7,4.8,10.7,10.7S224.9,148,219,148s-10.7-4.8-10.7-10.7S213.1,126.7,219,126.7"/>
	</g>
	<g>
		<path class="st5" d="M173.4,373.9h-1.6c-2.4,0-4.3-1.9-4.3-4.3s1.9-4.3,4.3-4.3h1.6c10.5,0,19-8.5,19-19v-18.9
			c0-2.4,1.9-4.3,4.3-4.3c2.4,0,4.3,1.9,4.3,4.3v18.9C200.9,361.6,188.6,373.9,173.4,373.9z"/>
	</g>
	<g>
		<path class="st5" d="M277.8,451.4h-17.5c-5.6,0-10.1-4.5-10.1-10.1v-11.6h-1.2v11.6c0,5.6-4.5,10.1-10.1,10.1h-17.6
			c-4,0-7.6-2.3-9.3-5.9l-6.8-14.5c-7.3-2.1-16-7.4-25.8-15.8c-7.6-6.5-11.9-15.9-11.9-25.8l0.1-277.1c-0.1-2.1-0.4-21.4,4.3-30.6
			C186.4,54,218.8,37,254.6,38.4c32.6,1.3,58.6,17.5,69.7,43.4c6,11.2,7.3,29.4,7.3,30.2c0,0.1,0,0.2,0,0.3l-0.1,277.1
			c0,9.9-4.2,19.2-11.6,25.5c-10,8.6-18.7,14-26,16l-6.9,14.6C285.3,449.1,281.7,451.4,277.8,451.4z M244.6,421.1h9.8
			c2.4,0,4.3,1.9,4.3,4.3v15.9c0,0.9,0.7,1.6,1.6,1.6h17.5c0.6,0,1.2-0.4,1.5-1l7.8-16.4c0.6-1.2,1.7-2.1,3-2.4
			c6.2-1.3,14.6-6.3,24.3-14.7c5.5-4.7,8.6-11.6,8.6-19l0,0l0.1-276.9c-0.1-1.6-1.5-17.7-6.4-26.7c-0.1-0.1-0.1-0.3-0.2-0.4
			c-9.7-22.9-32.9-37.2-62.2-38.4c-32.5-1.3-61.8,13.9-74.7,38.7c-3.2,6.1-3.5,21.2-3.4,26.5L176,389.4c0,7.4,3.3,14.4,8.9,19.3
			c9.5,8.2,17.9,13.1,24.1,14.4c1.3,0.3,2.4,1.1,3,2.4l7.7,16.4c0.3,0.6,0.9,1,1.6,1h17.6c0.9,0,1.6-0.7,1.6-1.6v-15.9
			C240.4,423,242.3,421.1,244.6,421.1z"/>
	</g>
	<g>
		<path class="st5" d="M327.2,373.9h-1.5c-15.2,0-27.5-12.4-27.5-27.5V328c0-2.4,1.9-4.3,4.3-4.3c2.4,0,4.3,1.9,4.3,4.3v18.4
			c0,10.5,8.5,19,19,19h1.5c2.4,0,4.3,1.9,4.3,4.3S329.6,373.9,327.2,373.9z"/>
	</g>
	<g>
		<path class="st5" d="M287.4,324h-75.3c-2.4,0-4.3-1.9-4.3-4.3s1.9-4.3,4.3-4.3h75.3c2.4,0,4.3,1.9,4.3,4.3S289.8,324,287.4,324z"
			/>
	</g>
	<g>
		<path class="st5" d="M338.9,458.1c-0.5,0-0.8,0-0.9,0c-2.4-0.2-4.1-2.3-3.9-4.6c0.2-2.3,2.3-4,4.6-3.9c0.1,0,3,0.1,4.9-1.9
			c1.9-1.9,2.6-5.5,2.2-10.4c-1.6-18-2-33.5-2-33.7c-0.1-2.4,1.8-4.3,4.2-4.4c2.4,0,4.3,1.8,4.4,4.2c0,0.1,0.4,15.4,2,33.2
			c0.7,7.6-0.9,13.4-4.8,17.2C345.7,457.7,340.9,458.1,338.9,458.1z"/>
	</g>
	<g>
		<path class="st5" d="M176.5,466.3c-0.6,0-1.1,0-1.8-0.1c-11.2-1.6-17.7-9.7-19.9-16.1c-0.8-2.2,0.4-4.7,2.7-5.4
			c2.2-0.8,4.7,0.4,5.4,2.7c1.4,4.1,5.7,9.4,13.1,10.4c0.9,0.1,1.1-0.1,1.2-0.2c1.2-1.2,1.5-5.8,1.1-8.5c-0.3-2.1,1-4,2.9-4.6
			c1.8-0.6,4-1.8,4.1-4.2c0.1-2.4-1.8-5.6-6.4-7.6c-9.3-4-10.2-15.8-8.9-24.8h-18.1c-2.3,0-4.2-1.9-4.3-4.2
			c-1-40.5,8.5-83.2,14.3-105c3-11.5,5.3-18.5,5.4-18.8c0.7-2.2,3.2-3.5,5.4-2.7c2.2,0.7,3.5,3.1,2.7,5.4c0,0.1-2.3,7.1-5.3,18.3
			c-5.4,20.7-14.3,60.3-14,98.5h19.1c1.3,0,2.6,0.6,3.4,1.7s1.1,2.4,0.7,3.7c-1.2,4.4-3.2,17.5,2.9,20.1c7.4,3.1,11.9,9.4,11.6,15.9
			c-0.2,4.5-2.7,8.3-6.9,10.6c0.1,3.6-0.5,9.1-3.8,12.4C181.9,464.9,179.7,466.3,176.5,466.3z"/>
	</g>
	<g>
		<path class="st5" d="M161.1,458.1c-2,0-6.8-0.5-10.6-4.3c-3.8-3.8-5.4-9.6-4.8-17.2c1.6-17.7,1.9-33,1.9-33.2
			c0.1-2.4,2-4.2,4.4-4.2c2.4,0.1,4.2,2,4.2,4.4c0,0.1-0.4,15.7-2,33.7c-0.4,4.9,0.3,8.5,2.2,10.4c2,2,4.8,1.9,4.9,1.9
			c2.4-0.2,4.4,1.6,4.6,3.9c0.2,2.3-1.5,4.4-3.8,4.6C161.9,458.1,161.6,458.1,161.1,458.1z"/>
	</g>
	<g>
		<path class="st5" d="M291.7,324.8c2.1,0,3.7,1.7,3.7,3.7c0,2.1-1.7,3.7-3.7,3.7c-2.1,0-3.7-1.7-3.7-3.7
			C287.9,326.5,289.6,324.8,291.7,324.8"/>
	</g>
	<g>
		<path class="st5" d="M207.7,324.8c2.1,0,3.7,1.7,3.7,3.7c0,2.1-1.7,3.7-3.7,3.7s-3.7-1.7-3.7-3.7
			C204,326.5,205.6,324.8,207.7,324.8"/>
	</g>
	<g>
		<path class="st5" d="M275.5,475c-8.8,0-14.8-4-17.2-5.9l-2.4-0.4c-2-0.4-3.5-2.1-3.5-4.2c-0.1-17.4,0-17.8,0.1-18.4
			c0.6-2.3,2.9-3.7,5.2-3.1c2.1,0.5,3.5,2.5,3.2,4.6c0,1.1,0,7.1,0,13.3h0c0.8,0.2,1.6,0.6,2.2,1.1c0.2,0.2,5.9,5.5,15.3,4.1
			c3.5-0.5,5.7-0.9,7.1-1.2c-0.2-3.2-1-6.3-2.3-6.9c-5.7-2.8-8.5-5.3-8-11.3c0.2-2.4,2.2-4.1,4.6-3.9c2.4,0.2,4.1,2.3,3.9,4.6
			c-0.1,0.8,0,1.1,0,1.1c0-0.1,0.5,0.5,3.2,1.8c7.2,3.5,7.2,14.4,7.1,17.4c0,0.5,0,1-0.2,1.4c-0.9,3-3.4,4-14.3,5.5
			C278.3,474.9,276.9,475,275.5,475z"/>
	</g>
	<g>
		<path class="st5" d="M244.1,258.2c-10.3,0-18-1.9-18.7-2c-2.3-0.6-3.7-2.9-3.1-5.2c0.6-2.3,2.9-3.7,5.2-3.1
			c0.4,0.1,34,8.1,52.2-11.3c1.6-1.7,4.3-1.8,6-0.2c1.7,1.6,1.8,4.3,0.2,6.1C273.9,255.2,257,258.2,244.1,258.2z"/>
	</g>
	<g>
		<path class="st5" d="M249.6,53.7c-0.3,0-0.7,0-1-0.1c-1.9-0.5-3.2-2.2-3.2-4.1V32.9c0-2.4,1.9-4.3,4.3-4.3c2.4,0,4.3,1.9,4.3,4.3
			v4.1c4.5-4.5,10.9-9.3,19.3-11.8c2.3-0.7,4.6,0.6,5.3,2.9c0.7,2.3-0.6,4.6-2.9,5.3c-14.8,4.4-22.1,17.9-22.2,18.1
			C252.6,52.9,251.1,53.7,249.6,53.7z"/>
	</g>
	<g>
		<path class="st5" d="M249.6,53.7c-1.5,0-3-0.8-3.8-2.3c-0.1-0.1-7.4-13.7-22.2-18.1c-2.3-0.7-3.6-3-2.9-5.3
			c0.7-2.3,3.1-3.6,5.3-2.9c18.3,5.4,27,21.6,27.3,22.3c1.1,2.1,0.3,4.7-1.8,5.8C250.9,53.6,250.2,53.7,249.6,53.7z"/>
	</g>
	<g>
		<path class="st5" d="M292.7,346.6c-1,0-1.9-0.3-2.6-0.9l-13.2-10.4c-1-0.8-1.6-2-1.6-3.4c0-1.9,0-3.1,48.5-71.6c1.4-1.9,4-2.4,6-1
			c1.9,1.4,2.4,4,1,6c-23.8,33.6-40.5,57.6-45.7,65.6l6.7,5.3c5.9-8.6,20.9-30.7,32-47.1c1.3-2,4-2.5,5.9-1.1s2.5,4,1.1,5.9
			c-0.3,0.5-33.4,49.4-34.8,51.1c-0.7,0.9-1.7,1.5-2.9,1.6C293,346.6,292.8,346.6,292.7,346.6z"/>
	</g>
	<g>
		<path class="st5" d="M206.9,346.6c-0.2,0-0.3,0-0.5,0c-1.1-0.1-2.1-0.7-2.9-1.6c-1.2-1.5-25.9-37.9-35.2-51.9
			c-0.1-0.2-0.2-0.4-0.3-0.6c-0.4-0.7-0.6-1.1-0.8-1.5c-1.3-1.9-0.9-4.5,1-5.9c1.9-1.4,4.6-1,5.9,0.9c0.6,0.9,0.9,1.5,1.1,2l0,0
			c0,0,0.1,0.1,0.1,0.2c0.1,0.2,0.3,0.4,0.4,0.7c9.3,13.8,25.8,38.1,32.1,47.3l6.7-5.3c-7.2-11.1-35.3-50.9-45.2-64.9l-0.9-1.3
			c-1.4-1.9-0.9-4.6,1-6s4.6-0.9,6,1l0.9,1.3c48.1,68,48.1,68.9,48.1,70.9c0,1.3-0.6,2.5-1.6,3.4l-13.2,10.4
			C208.7,346.3,207.8,346.6,206.9,346.6z M216.1,333.5L216.1,333.5L216.1,333.5z"/>
	</g>
	<g>
		<path class="st6" d="M224.1,464.9c0.3-0.1,11.1,0,11.1,0"/>
		<path class="st5" d="M224.1,469.1c-1.8,0-3.5-1.1-4.1-2.9c-0.7-2.2,0.5-4.7,2.7-5.4c0.9-0.3,0.9-0.3,12.5-0.2c2.4,0,4.3,2,4.2,4.3
			c0,2.4-1.9,4.3-4.3,4.2c-4.6,0-9.7,0-10.7,0C224.4,469.1,224.3,469.1,224.1,469.1z"/>
	</g>
	<g>
		<path class="st6" d="M220.5,462.1h18.9c0.9,0,1.8-0.4,2.4-1.1l4.4-5c0.8-0.9,1-2.2,0.6-3.3c-2.7-6.8-9.2-11.5-16.5-11.7
			c-7.7-0.2-14.7,4.5-17.6,11.6c-0.5,1.2-0.2,2.5,0.7,3.4l4.9,5C218.8,461.8,219.6,462.1,220.5,462.1z"/>
		<path class="st5" d="M239.4,466.4h-18.9c-2,0-4-0.8-5.4-2.3l-4.9-5c-2-2.1-2.6-5.3-1.6-8c3.6-8.8,12.3-14.6,21.7-14.3
			c9,0.3,17,5.9,20.4,14.4c1,2.6,0.5,5.6-1.4,7.7l-4.4,5C243.5,465.5,241.5,466.4,239.4,466.4z M221.2,458.2L221.2,458.2
			L221.2,458.2z M220.9,457.9h18l3.7-4.1c-2.2-5-7-8.2-12.4-8.4c-5.6-0.2-10.9,3.1-13.2,8.3L220.9,457.9z"/>
	</g>
</g>
</svg>
