<?xml version="1.0" encoding="utf-8"?>
<!-- Generator: Adobe Illustrator 26.1.0, SVG Export Plug-In . SVG Version: 6.00 Build 0)  -->
<svg version="1.1" id="Livello_1" xmlns="http://www.w3.org/2000/svg" xmlns:xlink="http://www.w3.org/1999/xlink" x="0px" y="0px"
	 viewBox="0 0 500 500" style="enable-background:new 0 0 500 500;" xml:space="preserve">
<style type="text/css">
	.st0{fill:none;stroke:#313130;stroke-width:8.4996;stroke-linecap:round;stroke-linejoin:round;stroke-miterlimit:10;}
	.st1{fill:#64A4DA;}
	.st2{fill:#474848;}
	.st3{fill:#FFD24C;}
	.st4{fill:#E6332A;}
	.st5{fill:none;stroke:#313130;stroke-width:8.3715;stroke-linecap:round;stroke-linejoin:round;stroke-miterlimit:10;}
	.st6{fill:#313130;}
	.st7{fill:#D6D6D6;stroke:#313130;stroke-width:10.6557;stroke-linecap:round;stroke-linejoin:round;stroke-miterlimit:10;}
</style>
<g>
	<path class="st0" d="M262.8,25l2.3,16.3c0,0-10-13.8-27.2-16.4"/>
	<path class="st1" d="M248.6,442.6h-6.4c-2.3,0-4.4-1.3-5.3-3.4l-7.2-15.1h14.9L248.6,442.6z"/>
	<path class="st0" d="M229.7,424.1l7.2,15.1c1,2.1,3.1,3.4,5.3,3.4h6.4"/>
	<g>
		<path class="st2" d="M265.8,471c-1,1-42.2,0-42.2,0s-5.7,0-5.7-6.2c0-4.6,13.2-13.9,14.4-14.6l7-1l9-3h15.2l2.2,3.9
			C265.8,450,266.8,469.9,265.8,471z"/>
		<path class="st0" d="M234.7,449l8.3-4h7.8H266l2.2,3.9c0,0,1,22.1,0,23.1h-6.6c-1.5,0-6.7,0-8.4,0c-0.5,0-4.3-1.6-4.8-1.6
			c0,0-14.9,2.7-23,2.1c-8.4-0.6-13.4-4.2-6-13.3L234.7,449z"/>
	</g>
	<g>
		<path class="st2" d="M275.8,473.4c-1,1-42.2,0-42.2,0s-5.7,0-5.7-6.2c0-4.6,13.2-13.9,14.4-14.6l7-1l9-3h15.2l2.2,3.9
			C275.8,452.4,276.8,472.3,275.8,473.4z"/>
		<path class="st0" d="M244.7,451.4l8.3-4h7.8H276l2.2,3.9c0,0,1,22.1,0,23.1h-6.6c-1.5,0-6.7,0-8.4,0c-0.5,0-4.3-1.6-4.8-1.6
			c0,0-14.9,2.7-23,2.1c-8.4-0.6-13.4-4.2-6-13.3L244.7,451.4z"/>
	</g>
	<path class="st3" d="M286.8,423.4H282v15.8c0,3.2-2.6,5.8-5.8,5.8h-17.4c-2.3,0-4.4-1.3-5.3-3.4l-7.7-16.3
		c-1.9-0.4-27.9-3.5-31.2-4.4c-11.8-3.1-20.3-10.6-26.1-15.5c-6.4-5.5-10-13.6-10-22.1L178.3,108c0,0,1.2-18,6.9-28.4
		c23.5-55.4,116-53.4,143.8,0c4.4,8.4,3.8,28.4,3.8,28.4l0.1,275.3c0,8.6-3.8,16.7-10.3,22.4c-7.3,6.2-17.3,13.5-25.9,15.3
		L286.8,423.4z"/>
	<g>
		<path class="st4" d="M285.9,294.9c2.2,29.9-7.1,50.8-30.2,50.8c-24.9,0-32.8-20.7-30.7-50.8h-44.3v103.2l29.2,23.1l32.2,7.5
			l11.3,12.8l22.5,5.8l6.1-24l27.6-6.4l22.8-21.2l2.5-100.9h-49V294.9z"/>
		<path class="st5" d="M332.2,294.9h-46.3c2.2,29.9-7.1,50.8-30.2,50.8c-24.9,0-32.8-20.7-30.7-50.8h-44.3"/>
	</g>
	<g id="LACCETTI_00000176028906307158894450000011862342239452904090_">
		<path class="st4" d="M179,271.6c10.7,15.8,32.9,48.6,33.8,49.8l12.9-10.2c0-1.5-33.2-48.6-46.7-67.7"/>
		<path class="st4" d="M332.2,268.8c-0.7,0.9-0.3,0.9-1.1,2.1v0.1c-10.4,15.5-33.3,49.3-34.3,50.5l-12.9-10.2
			c0-1.5,34-49.6,47.2-68.3"/>
		<circle class="st6" cx="213.8" cy="308" r="3.7"/>
		<circle class="st6" cx="296" cy="308" r="3.7"/>
		<path class="st5" d="M179,271.6c10.7,15.8,32.9,48.6,33.8,49.8l12.9-10.2c0-1.5-33.2-48.6-46.7-67.7"/>
		<path class="st5" d="M332.2,268.8c-0.7,0.9-0.3,0.9-1.1,2.1v0.1c-10.4,15.5-33.3,49.3-34.3,50.5l-12.9-10.2
			c0-1.5,34-49.6,47.2-68.3"/>
	</g>
	<path class="st3" d="M319.7,408c1-0.7,1.8-1.6,2.8-2.3c5.2-4.6,8.9-10.7,10-17.5C330.6,394.8,326.9,401.7,319.7,408z"/>
	<path class="st3" d="M295.4,421.3l1.3-0.4c5.3-1.1,11.2-4.2,16.6-8.1c-4.7,3-10.7,5.8-17.8,8.1L295.4,421.3z"/>
	<path class="st0" d="M284.1,423.4h-4.9v15.8c0,3.2-2.6,5.8-5.8,5.8H256c-2.3,0-4.4-1.3-5.3-3.4l-7.7-16.3
		c-1.9-0.4-25.3-3.5-28.6-4.4c-11.8-3.1-20.3-10.6-26.1-15.5c-6.4-5.5-10-13.6-10-22.1l0-275.3c0,0,1.2-18,6.9-28.4
		c23.5-55.4,116-53.4,143.8,0c4.4,8.4,3.8,28.4,3.8,28.4l0.1,275.3c0,8.6-3.8,16.7-10.3,22.4c-7.3,6.2-17.3,13.5-25.9,15.3
		L284.1,423.4z"/>
	<g>
		<path class="st2" d="M264.1,365.7c0,0,3.1,25.1,3.2,36s-3.3,16.6-9.5,10.1c0,0-23.9,27.8-23.1,0c0,0-11.7-3.4-3.3-17.5
			s14.3-7.7,10.7-28.1L264.1,365.7z"/>
		<path class="st3" d="M252,265.8l-8.9,99.9h22.3C265.3,365.7,272.3,304.7,252,265.8z"/>
		<path class="st0" d="M242.1,365.7c8-34.6,7-108.7,7-108.7c2.1,4.2,4.7,11.3,6.4,18c6.1,23,10.7,51.6,9.8,90.7H242.1
			c0,0,5.5,20.4-5.3,25c-10.8,4.7-12.3,16.5-1.9,19.8c0,0-2,14.7,7.1,13.3c9.1-1.3,14.6-7.7,16.4-13.2"/>
		<path class="st0" d="M255.7,415.7c0,0,13.2,1.2,11.6-16.8s-2-33.2-2-33.2"/>
	</g>
	<rect x="165" y="109.2" class="st7" width="12.6" height="62.8"/>
	<rect x="177.6" y="123.1" class="st7" width="152.7" height="35.1"/>
</g>
</svg>
