<?xml version="1.0" encoding="utf-8"?>
<!-- Generator: Adobe Illustrator 23.0.5, SVG Export Plug-In . SVG Version: 6.00 Build 0)  -->
<svg version="1.1" id="Livello_1" xmlns="http://www.w3.org/2000/svg" xmlns:xlink="http://www.w3.org/1999/xlink" x="0px" y="0px"
	 viewBox="0 0 500 500" style="enable-background:new 0 0 500 500;" xml:space="preserve">
<style type="text/css">
	.st0{fill:#464847;}
	.st1{fill:#FFD14C;}
	.st2{fill:#FFFFFF;}
	.st3{fill:#D5D5D5;}
	.st4{fill:#65A4D9;}
	.st5{fill:none;stroke:#313130;stroke-width:8.6853;stroke-linecap:round;stroke-linejoin:round;stroke-miterlimit:10;}
	.st6{fill:#313130;}
	.st7{fill:#484848;stroke:#313130;stroke-width:8.6853;stroke-linecap:round;stroke-linejoin:round;stroke-miterlimit:10;}
	.st8{fill:#E6332A;}
</style>
<g>
	<path class="st0" d="M151.6,405c0,0-3.2,25.6-3.3,36.8c-0.1,11.2,3.4,16.9,9.7,10.3c0,0,24.4,28.4,23.6,0c0,0,11.9-3.5,3.4-17.9
		s-14.6-7.9-11-28.7L151.6,405z"/>
	<path class="st0" d="M348.4,405c0,0,3.2,25.6,3.3,36.8c0.1,11.2-3.4,16.9-9.7,10.3c0,0-24.4,28.4-23.6,0c0,0-11.9-3.5-3.4-17.9
		s14.6-7.9,11-28.7L348.4,405z"/>
	<path class="st1" d="M328.4,284.3L326.9,405l22.8,0C349.6,405,349.2,324.1,328.4,284.3"/>
	<path class="st1" d="M170.1,284.3l1.6,120.7l-22.8,0C148.9,405,149.3,324.1,170.1,284.3"/>
	<path class="st1" d="M328.4,390.6c0,8.7-3.7,17-10.3,22.6c-7.5,6.4-17.7,14.1-26.6,15.9l-7.9,27c-1,2.1-3.1,3.5-5.5,3.5l-17.8,0.2
		c-3.3,0,1.3,6.7,1.3,3.4l-7.3-36h-5h-5l-3.4,16c0,3.3,0.8,6.1-2.5,6.1h-17.8c-2.4,0-4.5-1.4-5.5-3.5l-7.8-16.6
		c-8.8-1.8-19-9.2-26.4-15.6c-6.6-5.8-10.6-14.1-10.6-22.9l0.1-281.3c0,0-0.6-20.5,3.9-29c28.4-54.5,122.9-56.7,146.9,0
		c5.8,10.6,7,29,7,29L328.4,390.6z"/>
	<path class="st2" d="M283.3,104.4c15.5,0,28,12.6,28,28s-12.5,28-28,28s-28-12.6-28-28C255.2,117,267.8,104.4,283.3,104.4"/>
	<path class="st2" d="M214.3,104.4c15.5,0,28,12.6,28,28s-12.6,28-28,28s-28-12.6-28-28C186.2,117,198.8,104.4,214.3,104.4"/>
	<path class="st3" d="M283.2,91.4c-14.4,0-27.2,7.6-34.4,18.9c-7.3-11.3-20.1-18.9-34.6-18.9c-22.7,0-40.9,18.4-40.9,41.1
		c0,22.6,18.2,40.9,40.9,40.9c14.5,0,27.3-7.6,34.6-18.9c7.2,11.3,20,18.9,34.4,18.9c22.7,0,41.1-18.4,41.1-40.9
		C324.3,109.8,305.9,91.4,283.2,91.4 M214.2,161.4c-16,0-28.9-12.9-28.9-28.9s12.9-29,28.9-29c16,0,29,13,29,29
		C243.3,148.5,230.2,161.4,214.2,161.4 M283.2,161.4c-16,0-28.9-12.9-28.9-28.9s12.9-29,28.9-29s29,13,29,29
		C312.2,148.5,299.2,161.4,283.2,161.4"/>
	<path class="st4" d="M195.8,319.9v29.6c0,0-3.2,21.5-25.3,21.1c0,0-15.6,41.5,37,58.5l9.1,20.1l18.4-0.5c0,0,10.4,3.3,9.5-21.6h9.9
		l7.4,37.2c0,0-7.8-4.6,1.5-4.6l17.1,0.4c0,0,3.8-10.2,11-31.1c0,0,33.1-5.2,36-31.3l0.9-27.2c0,0-33,2.3-27-50.7L195.8,319.9
		L195.8,319.9z"/>
	<path class="st4" d="M328.4,262.1c-14,19.8-48.5,68.6-48.5,70.2l13.4,10.5c1-1.2,24-35.3,35.1-51.7"/>
	<path class="st4" d="M170.6,261.5c13.6,19.3,48.9,69.2,48.9,70.8l-13.4,10.5c-1-1.2-24.7-36.3-35.5-52.4v-0.1
		c-0.9-1.2-0.5-1.2-1.2-2.1"/>
	<path class="st5" d="M328.4,282c2.1,4.3,5,10.7,6.8,17.5c6.2,23.5,15.2,65.5,14.4,105.4h-23.8c0,0,5.6,20.8-5.4,25.5
		c-11.1,4.8-12.6,16.8-2,20.2c0,0-2,15,7.3,13.6c9.3-1.3,14.9-7.9,16.8-13.5"/>
	<ellipse class="st5" cx="283.3" cy="132.5" rx="29" ry="29"/>
	<ellipse class="st5" cx="214.3" cy="132.5" rx="29" ry="29"/>
	<path class="st5" d="M248.8,154.6c-7.3,11.3-20,18.9-34.6,18.9c-22.7,0-41-18.4-41-40.9c0-22.7,18.4-41,41-41
		c14.5,0,27.3,7.5,34.6,18.9c7.2-11.3,19.9-18.9,34.4-18.9c22.7,0,41,18.3,41,41c0,22.6-18.4,40.9-41,40.9
		C268.8,173.5,256,165.9,248.8,154.6z"/>
	<path class="st6" d="M274.7,123.9c6,0,10.8,4.9,10.8,10.8s-4.9,10.8-10.8,10.8c-6,0-10.8-4.9-10.8-10.8
		C263.9,128.8,268.7,123.9,274.7,123.9"/>
	<path class="st6" d="M218.5,123.9c6,0,10.8,4.9,10.8,10.8s-4.9,10.8-10.8,10.8s-10.8-4.9-10.8-10.8
		C207.7,128.8,212.5,123.9,218.5,123.9"/>
	<path class="st5" d="M170.6,370.6h1.7c13,0,23.6-10.6,23.6-23.6v-19.2"/>
	<path class="st5" d="M261.8,463.2l-7.3-36h-5h-5l-6.7,20.2c0,3.3-5.2,1.9-8.5,1.9l-8.6,0c-2.4,0-4.5-1.4-5.5-3.5l-7.8-16.6
		c-8.8-1.8-19-9.2-26.4-15.6c-6.6-5.8-10.6-14.1-10.6-22.9l0.1-281.3c0,0-0.6-20.5,3.9-29c28.4-54.5,122.9-56.7,146.9,0
		c5.8,10.6,7,29,7,29l-0.1,281.3c0,8.7-3.7,17-10.3,22.6c-7.5,6.4-17.7,14.1-26.6,15.9l-7.2,34.3"/>
	<path class="st5" d="M303.3,328.3V347c0,13,10.6,23.6,23.6,23.6h1.6"/>
	<polyline class="st5" points="211.5,319.9 249.5,319.9 288,319.9 	"/>
	<path class="st5" d="M339.7,456.1c0,0,13.5,1.2,11.9-17.1s-2-34-2-34"/>
	<path class="st5" d="M170.2,280.7c0,0-2.4,7.1-5.4,18.9c-6.2,23.5-15.3,65.5-14.3,105.4h23.7c0,0-5.6,20.8,5.4,25.5
		s12.6,16.8,1.9,20.1c0,0,2,15-7.3,13.6c-9.3-1.4-14.8-8-16.7-13.5"/>
	<path class="st5" d="M160.3,456.1c0,0-13.5,1.2-11.9-17.1s2-34,2-34"/>
	<path class="st6" d="M292.3,325.1c2.1,0,3.8,1.7,3.8,3.8c0,2.1-1.7,3.8-3.8,3.8c-2.1,0-3.8-1.7-3.8-3.8
		C288.5,326.8,290.2,325.1,292.3,325.1"/>
	<path class="st6" d="M207.1,325.1c2.1,0,3.8,1.7,3.8,3.8c0,2.1-1.7,3.8-3.8,3.8s-3.8-1.7-3.8-3.8S205,325.1,207.1,325.1"/>
	<path class="st5" d="M226.1,251.1c0,0,36.8,9.2,57.2-12.8"/>
	<path class="st5" d="M274.7,25c-17,5-25.1,20.5-25.1,20.5V28.6"/>
	<path class="st5" d="M224.4,25c17,5,25.1,20.5,25.1,20.5"/>
	<path class="st5" d="M328.4,262.1c-14,19.8-48.5,68.6-48.5,70.2l13.4,10.5c1-1.2,24-35.3,35.1-51.7"/>
	<path class="st5" d="M170.6,261.5c13.6,19.3,48.9,69.2,48.9,70.8l-13.4,10.5c-1-1.2-24.7-36.3-35.5-52.4v-0.1
		c-0.9-1.2-0.5-1.2-1.2-2.1"/>
	<g>
		<path class="st7" d="M220.1,467.3c0.3-0.1,11.3,0,11.3,0"/>
		<path class="st7" d="M216.4,464.5h19.2c0.9,0,1.8-0.4,2.4-1.1l4.5-5c0.8-0.9,1.1-2.2,0.6-3.4c-2.7-6.9-9.4-11.7-16.8-11.9
			c-7.8-0.2-15,4.6-17.9,11.8c-0.5,1.2-0.2,2.5,0.7,3.5l4.9,5.1C214.7,464.1,215.5,464.5,216.4,464.5z"/>
	</g>
	<path class="st7" d="M264.5,475h18.3l0,0h3c1.4,0,2.6-1.1,2.6-2.6v-3.7c-1.8-6.6-7.7-11.3-14.5-11.5c-7.1-0.2-13.5,4.5-15.4,11.5
		v3.7c0,1.4,1.1,2.6,2.6,2.6H264.5L264.5,475z"/>
</g>
<g>
	<path class="st0" d="M151.6,405c0,0-3.2,25.6-3.3,36.8c-0.1,11.2,3.4,16.9,9.7,10.3c0,0,24.4,28.4,23.6,0c0,0,11.9-3.5,3.4-17.9
		s-14.6-7.9-11-28.7L151.6,405z"/>
	<path class="st0" d="M348.4,405c0,0,3.2,25.6,3.3,36.8c0.1,11.2-3.4,16.9-9.7,10.3c0,0-24.4,28.4-23.6,0c0,0-11.9-3.5-3.4-17.9
		s14.6-7.9,11-28.7L348.4,405z"/>
	<path class="st1" d="M328.4,284.3L326.9,405l22.8,0C349.6,405,349.2,324.1,328.4,284.3"/>
	<path class="st1" d="M170.1,284.3l1.6,120.7l-22.8,0C148.9,405,149.3,324.1,170.1,284.3"/>
	<path class="st1" d="M328.4,390.6c0,8.7-3.7,17-10.3,22.6c-7.5,6.4-17.7,14.1-26.6,15.9l-7.9,27c-1,2.1-3.1,3.5-5.5,3.5l-17.8,0.2
		c-3.3,0,1.3,6.7,1.3,3.4l-7.3-36h-5h-5l-3.4,16c0,3.3,0.8,6.1-2.5,6.1h-17.8c-2.4,0-4.5-1.4-5.5-3.5l-7.8-16.6
		c-8.8-1.8-19-9.2-26.4-15.6c-6.6-5.8-10.6-14.1-10.6-22.9l0.1-281.3c0,0-0.6-20.5,3.9-29c28.4-54.5,122.9-56.7,146.9,0
		c5.8,10.6,7,29,7,29L328.4,390.6z"/>
	<path class="st2" d="M283.3,104.4c15.5,0,28,12.6,28,28s-12.5,28-28,28s-28-12.6-28-28C255.2,117,267.8,104.4,283.3,104.4"/>
	<path class="st2" d="M214.3,104.4c15.5,0,28,12.6,28,28s-12.6,28-28,28s-28-12.6-28-28C186.2,117,198.8,104.4,214.3,104.4"/>
	<path class="st3" d="M283.2,91.4c-14.4,0-27.2,7.6-34.4,18.9c-7.3-11.3-20.1-18.9-34.6-18.9c-22.7,0-40.9,18.4-40.9,41.1
		c0,22.6,18.2,40.9,40.9,40.9c14.5,0,27.3-7.6,34.6-18.9c7.2,11.3,20,18.9,34.4,18.9c22.7,0,41.1-18.4,41.1-40.9
		C324.3,109.8,305.9,91.4,283.2,91.4 M214.2,161.4c-16,0-28.9-12.9-28.9-28.9s12.9-29,28.9-29c16,0,29,13,29,29
		C243.3,148.5,230.2,161.4,214.2,161.4 M283.2,161.4c-16,0-28.9-12.9-28.9-28.9s12.9-29,28.9-29s29,13,29,29
		C312.2,148.5,299.2,161.4,283.2,161.4"/>
	<path class="st8" d="M195.8,319.9v29.6c0,0-3.2,21.5-25.3,21.1c0,0-15.6,41.5,37,58.5l9.1,20.1l18.4-0.5c0,0,10.4,3.3,9.5-21.6h9.9
		l7.4,37.2c0,0-7.8-4.6,1.5-4.6l17.1,0.4c0,0,3.8-10.2,11-31.1c0,0,33.1-5.2,36-31.3l0.9-27.2c0,0-33,2.3-27-50.7L195.8,319.9
		L195.8,319.9z"/>
	<path class="st8" d="M328.4,262.1c-14,19.8-48.5,68.6-48.5,70.2l13.4,10.5c1-1.2,24-35.3,35.1-51.7"/>
	<path class="st8" d="M170.6,261.5c13.6,19.3,48.9,69.2,48.9,70.8l-13.4,10.5c-1-1.2-24.7-36.3-35.5-52.4v-0.1
		c-0.9-1.2-0.5-1.2-1.2-2.1"/>
	<path class="st5" d="M328.4,282c2.1,4.3,5,10.7,6.8,17.5c6.2,23.5,15.2,65.5,14.4,105.4h-23.8c0,0,5.6,20.8-5.4,25.5
		c-11.1,4.8-12.6,16.8-2,20.2c0,0-2,15,7.3,13.6c9.3-1.3,14.9-7.9,16.8-13.5"/>
	<ellipse class="st5" cx="283.3" cy="132.5" rx="29" ry="29"/>
	<ellipse class="st5" cx="214.3" cy="132.5" rx="29" ry="29"/>
	<path class="st5" d="M248.8,154.6c-7.3,11.3-20,18.9-34.6,18.9c-22.7,0-41-18.4-41-40.9c0-22.7,18.4-41,41-41
		c14.5,0,27.3,7.5,34.6,18.9c7.2-11.3,19.9-18.9,34.4-18.9c22.7,0,41,18.3,41,41c0,22.6-18.4,40.9-41,40.9
		C268.8,173.5,256,165.9,248.8,154.6z"/>
	<path class="st6" d="M274.7,123.9c6,0,10.8,4.9,10.8,10.8s-4.9,10.8-10.8,10.8c-6,0-10.8-4.9-10.8-10.8
		C263.9,128.8,268.7,123.9,274.7,123.9"/>
	<path class="st6" d="M218.5,123.9c6,0,10.8,4.9,10.8,10.8s-4.9,10.8-10.8,10.8s-10.8-4.9-10.8-10.8
		C207.7,128.8,212.5,123.9,218.5,123.9"/>
	<path class="st5" d="M170.6,370.6h1.7c13,0,23.6-10.6,23.6-23.6v-19.2"/>
	<path class="st5" d="M261.8,463.2l-7.3-36h-5h-5l-6.7,20.2c0,3.3-5.2,1.9-8.5,1.9l-8.6,0c-2.4,0-4.5-1.4-5.5-3.5l-7.8-16.6
		c-8.8-1.8-19-9.2-26.4-15.6c-6.6-5.8-10.6-14.1-10.6-22.9l0.1-281.3c0,0-0.6-20.5,3.9-29c28.4-54.5,122.9-56.7,146.9,0
		c5.8,10.6,7,29,7,29l-0.1,281.3c0,8.7-3.7,17-10.3,22.6c-7.5,6.4-17.7,14.1-26.6,15.9l-7.2,34.3"/>
	<path class="st5" d="M303.3,328.3V347c0,13,10.6,23.6,23.6,23.6h1.6"/>
	<polyline class="st5" points="211.5,319.9 249.5,319.9 288,319.9 	"/>
	<path class="st5" d="M339.7,456.1c0,0,13.5,1.2,11.9-17.1s-2-34-2-34"/>
	<path class="st5" d="M170.2,280.7c0,0-2.4,7.1-5.4,18.9c-6.2,23.5-15.3,65.5-14.3,105.4h23.7c0,0-5.6,20.8,5.4,25.5
		s12.6,16.8,1.9,20.1c0,0,2,15-7.3,13.6c-9.3-1.4-14.8-8-16.7-13.5"/>
	<path class="st5" d="M160.3,456.1c0,0-13.5,1.2-11.9-17.1s2-34,2-34"/>
	<path class="st6" d="M292.3,325.1c2.1,0,3.8,1.7,3.8,3.8c0,2.1-1.7,3.8-3.8,3.8c-2.1,0-3.8-1.7-3.8-3.8
		C288.5,326.8,290.2,325.1,292.3,325.1"/>
	<path class="st6" d="M207.1,325.1c2.1,0,3.8,1.7,3.8,3.8c0,2.1-1.7,3.8-3.8,3.8s-3.8-1.7-3.8-3.8S205,325.1,207.1,325.1"/>
	<path class="st5" d="M226.1,251.1c0,0,36.8,9.2,57.2-12.8"/>
	<path class="st5" d="M274.7,25c-17,5-25.1,20.5-25.1,20.5V28.6"/>
	<path class="st5" d="M224.4,25c17,5,25.1,20.5,25.1,20.5"/>
	<path class="st5" d="M328.4,262.1c-14,19.8-48.5,68.6-48.5,70.2l13.4,10.5c1-1.2,24-35.3,35.1-51.7"/>
	<path class="st5" d="M170.6,261.5c13.6,19.3,48.9,69.2,48.9,70.8l-13.4,10.5c-1-1.2-24.7-36.3-35.5-52.4v-0.1
		c-0.9-1.2-0.5-1.2-1.2-2.1"/>
	<g>
		<path class="st7" d="M220.1,467.3c0.3-0.1,11.3,0,11.3,0"/>
		<path class="st7" d="M216.4,464.5h19.2c0.9,0,1.8-0.4,2.4-1.1l4.5-5c0.8-0.9,1.1-2.2,0.6-3.4c-2.7-6.9-9.4-11.7-16.8-11.9
			c-7.8-0.2-15,4.6-17.9,11.8c-0.5,1.2-0.2,2.5,0.7,3.5l4.9,5.1C214.7,464.1,215.5,464.5,216.4,464.5z"/>
	</g>
	<path class="st7" d="M264.5,475h18.3l0,0h3c1.4,0,2.6-1.1,2.6-2.6v-3.7c-1.8-6.6-7.7-11.3-14.5-11.5c-7.1-0.2-13.5,4.5-15.4,11.5
		v3.7c0,1.4,1.1,2.6,2.6,2.6H264.5L264.5,475z"/>
</g>
</svg>
